<svg xmlns="http://www.w3.org/2000/svg" width="506" height="440" viewBox="0 0 506 440"><path opacity=".8" fill="#DF004E" d="M370.4 423.5H135.6L18.1 219 135.6 14.5H370l.3-.2 117.5 204.6z"/><path fill="#FFF" d="M379.4.5H126.6L.2 220l126.4 219.5h252.8L505.8 220 379.4.5zm-9 423H135.6L18.1 219 135.6 14.5H370l.3-.2 117.5 204.6-117.4 204.6z"/><path fill="#FFF" d="M183.7 244.5l2.5-1.7 3.1 3-1.4 2.9 3.1 3.1.8-1.3.9 4.3s.3-.1 3.5-.9 4.7-3.8 5.6-5.7c.8-1.7 2-3.8 3.2-4.7 1.1-.8 4.9-1.8 4.9-1.8l-1.6-4.1s-2.1 0-4.5 1.1-3.7 2.5-4.4 3.9c-.7 1.4-1 2.7-2.7 4.7-1.2 1.4-3.1 1.9-4.2 2.1l10.1-16.4-3.3-3.3-14.7 9.1 1.4-3.6s1.9-.2 3.4-.6c.7-.2 1.6-.4 3.8-2.8 2.1-2.4 2-5.4 1.3-6.6-.8-1.2-2.9-3.1-4.4-4.3-.8-.7-1.4-1.1-1.4-1.1l-2.8 2.8-12 12 3.4 3.3 4.1-4.1.5-.5-1.6 5.7-.5 1.7.2.2 2.4 2.4 1.3 1.2zm15.8 2.8v-.1c.6-1.5 1.4-3.6 2.7-4.9 1.6-1.6 2.8-1.7 4.2-2 .1 0 .3-.1.4-.1l.2.8c-.2 0-.3.1-.4.1-1.3.3-2.4.5-3.7 1.8-1.2 1.2-1.9 3.1-2.5 4.6v.1c-1.5 3.9-5.7 4.3-5.8 4.3l-.1-.8c.5-.1 3.7-.4 5-3.8zm-1-14.9l1.3 1.3-8.6 14.8-.7-.6 1.6-2.9-4.7-4.7-2.9 1.8-.7-.7 14.7-9zm-14.2.4l-2.1-2.1-.2-.2-4.2 4.2-.6-.6 6.1-6.1 5.5-5.5s.1 0 .2.1c.5.3 1.9 1.2 2.8 2.4 1 1.3 2 3.3-.1 5.6-1.8 1.9-2.2 2.1-3.4 2.3-.9.2-2.4.2-3.1.2l-2.3 6-.3.9-.7-.6 2.4-6.6zm2.4 30.4c-.5-.2-.4.1-.4.2s0 .2.1.5c.1.2.2.2.2.1.1-.1.1-.2.4-.4.2-.3 0-.4-.3-.4zm-1.2-1.8c-.1.2-.2.3-.1.5s.2.2.4.2.5 0 .4-.2c0-.1-.2-.8-.4-.9-.2-.1-.2.2-.3.4zm10.7 10.1c-.3.1-.4.2-.5.2-.1 0-.3.1-.2.5.1.2.1.2.3.3.2.1.4.1.4.1.1 0 .1-.1 0-.2s-.1-.2-.1-.2h.2c.1 0 .2-.1.2-.3 0-.2 0-.5-.3-.4zm-16.1-63.8l-5-5s-5.6 6.1-8.3 9c-2.7 2.9-2.9 2.9-3.9 2.8-1-.1-1.6 0-2.4-.9-.8-.9-1.9-2.3-1.9-2.3l-4.4 6.7s1.3 2.4 2.3 3.4c1 1 1.6 1.5 4.7 1.8 3 .3 4.9-1.2 5.7-2.1.8-.8 13.2-13.4 13.2-13.4zm-22.3 9.6l.7-.9c2.8 2.6 5.2 2.5 6.3 1.4.7-.7 2.6-2.7 4.6-4.8 2.3-2.4 4.8-5 5.7-5.9l.7.7c-.9.9-3.4 3.5-5.7 5.8-2 2.1-4 4.2-4.6 4.8-1.5 1.6-4.4 2-7.7-1.1zm29.5 44.6c-.2-.2-.2.1-.4 0s-.2-.2-.3-.4c-.1-.1-.2-.3-.2-.1v.5c0 .1 0 .2.1.3.2 0 .3 0 .3.1s0 .3.2.3c.2.1.4.1.5.1.1 0 .2 0 .3-.1.1-.1 0-.2-.2-.3-.2-.1-.2-.1-.3-.2.1.1.2 0 0-.2zm11.2-27.6l-.6-.6-9.7 6.2 4.4 4.4 5.9-10zm-7.9 5.8l4-2.5-2.5 4-1.5-1.5zm11.6-15.1c.1-.6.6-1.2-.2-1.2s-1.1.1-1.2.4c-.1.2-.3.3-.5.3l1.8 1.8c0-.3 0-.9.1-1.3zm-13.9-6.1l-.1-.1-2.9-2.9s-9.1 8.7-10 9.7c-1 1-1.8.2-2.4-.3-.6-.6-.9-1-.6-1.4.3-.4 10.4-10.6 10.4-10.6l-3.5-3.5-11 11c-2.7 2.7-2.3 2.8-2 4.1.2 1.3.6 3.1 1.4 3.6.8.5 3.9.5 3.9.5l-1.3 1.6 3.4 3.2 14.1-14.1.6-.8zm-13.9 11.4l-.6-.7.6-.5c-1.2-.7-3.3-1.9-3.5-2.1l-.2-.1c-.4-.3-.8-.5-1.1-.8-.3-.3-.5-.7-.5-1.2-.2-1.8.1-2 .9-2.8l.1-.1c.7-.7 7.3-7.3 9.1-9l.7.7c-1.7 1.7-8.4 8.3-9.1 9l-.1.1c-.6.6-.8.7-.6 2.1.1.5.3.8 1.2 1.4l.2.1c.8.5 2.8 1.7 3.6 2.2l10-9.7.6.7-11.3 10.7zm20.2 39.8c-.2 0-.2 0-.3.2-.1.1.1.2.3.4.2.2.2.2.3.1.1 0 .1-.1.1-.2v-.5c0-.1-.2 0-.4 0zm.8-1.7s-.2-.1-.5-.2-.3-.1-.4.1c-.1.1-.2.2-.2.3 0 .1.1.1.4.2.3.1.4 0 .5-.1.1-.1.2-.3.2-.3zm.9 2.3c0-.1 0-.2-.1-.6-.1-.3-.1-.3-.3-.3-.2 0-.3 0-.3.1v.4c0 .2-.1 0-.2 0 0 0-.1.1-.1.3 0 .2 0 .2.1.2s.2 0 .6.1c.3.1.3 0 .3-.2zm-2-1.1c0-.1-.2-.1-.4-.2-.2 0-.2 0-.2.2 0 .3.1.3.1.3.1 0 .2 0 .4-.1.1-.1.2-.2.1-.2zm-1.4 0c-.1.1-.2.1-.3-.1-.1-.1-.2-.1-.5 0s-.3.3-.2.3c0 .1 0 .2.2.3.1.1.3.1.6.1s.4-.2.5-.4c.1-.2.2-.2.1-.3-.3-.1-.3 0-.4.1zm-1.9-4.9c.2 0 .4 0 .4-.2s.1-.3.1-.4v-.3c-.1 0-.1 0-.2.1l-.2.2s-.1-.1-.1-.2c-.1-.1-.2-.1-.2-.1v.3c-.1.3-.1.6.2.6zm2.1.5c-.2-.2-.1.3-.3.3 0 0-.2-.3-.3-.3-.1 0-.1.1-.1.4 0 .3 0 .4.1.4s.1.1.3.2c.2.2.3.2.3.2.1 0 .1-.3.1-.4 0-.2 0-.3.1-.5.1 0 0-.1-.2-.3zm-1.1 3.6c0-.1.1-.2.1-.2.1-.1.1-.1.1-.2s-.2-.1-.3-.2c0 0 .1-.2.2-.2.1-.1.1-.1-.1-.2s-.2-.1-.2-.2c0 0 .1-.2 0-.3-.1-.1-.1.1-.3.1-.2 0-.3 0-.3-.1 0 0 .2-.2.3-.2.1-.1.2-.1.4-.1s.4-.1.4-.1c0-.1-.1-.1-.1-.2s.2-.2.1-.2c0-.1-.1 0-.4 0-.3-.1-.5-.1-.7-.1h-.4s.1-.1.4-.3l.4-.2c.1 0 .3-.1.2-.2s-.1-.2-.1-.3c0-.1.2-.2.1-.3-.1-.1-.1 0-.2 0s-.1-.2-.2-.1c-.1 0-.1.1-.2.2s-.2.3-.3.3c-.1 0-.1-.1-.2-.2s-.1-.1-.2-.1-.1.1-.1.3c-.1.2-.2.5-.3.5 0 0-.1.1-.2-.1v-.4c0-.1.2-.3.1-.3-.1-.1-.1.1-.2-.1 0-.2-.1-.4-.1-.5 0-.1-.1-.2-.2-.1-.3.3-.5.6-.8.9-.2.2-.4.4-.1.5s.4.2.4.3c0 0-.2.1-.2.2s.1.1.2.2.2.2.3.2c.2 0 .5-.1.5 0s-.4.2 0 .3c.3.1.5.1.5.2.1 0 .2.1 0 .2s-.5.3-.2.5.3.2.5.3c.1.1.3.2.3.2l.2.1s0 .1-.2.1-.3 0-.3.2c0 .1.1.2.1.3.1.1.2.2.3.2.2-.1.2-.1.3-.2.5-.2.7-.3.7-.4zm-3.9-4.6c-.1-.2-.2-.3-.2-.4-.1-.1-.1 0-.1.1s0 .3-.1.5-.1.2-.3 0c-.2-.2-.3-.2-.4-.2-.1 0-.2.1-.3.2-.1.1 0 .1.1.3 0 .2 0 .3.1.4.1.1.3 0 .4 0 .1 0 .2.1.3.1.1.1.3-.1.5-.3.2-.2.2-.2.1-.3 0 0-.1-.2-.1-.4zm-3.1-32c.7 0 2.3 0 3-.1 1-.2 1.2-.4 3-2.1 1.6-1.7 1-3.2 0-4.5-.7-1-1.7-1.6-2.1-1.8l-1.4 1.4-4.9 4.9 1.9 1.9.5.3zm3.8-6c.9.5 1.2.9 1.1 1.9-.2 1.1-1.3 1.8-2.3 2.1-1 .3-2.1-.3-2.2-.4l3.4-3.6zm26.8 4.9c-.1-.2-.1-1.4-.1-1.4s-.9 1.2-1.4 1.6c-.4.4-.4.5-.3.6.1.2 0 .6.1.8.1.2.1.4.1.8s.1.9.1.9l1.5-1.6v-.2c0-.1-.1-.4 0-.7.1-.4.1-.6 0-.8zm-4.5 4.1l1.3 1.3v-.8c0-.3 0-.5-.2-.8-.2-.3-.1-.5-.3-.7 0 0-.4.6-.6.7-.1.2-.2.3-.2.3zm-7.1 12.2c-.7 1.5-1.4 4.5-3.1 5.6-2.4 1.5-4.3 1.4-4.3 1.4l.8 4.9s2.3-.2 3.6-.4c1.3-.3 3.6-1.9 4.6-3.4 1-1.5 1.9-3.6 2.4-4.8.5-1.2 1.9-2.4 3-2.6 1.1-.3 3.7-1 3.7-1l-1.8-4.4s-.9-.1-3.6.7c-3 .8-4.8 2.8-5.3 4zm7.7-1.6c-1.7.2-3.3.9-4.3 2.1-.6.7-1.2 1.9-1.7 3.1-.7 1.5-1.4 3-2.3 3.8-1.2 1.1-2.5 1.7-4.1 1.8l-.1-.8c.5 0 2.1-.2 3.7-1.7.7-.6 1.3-2.1 2-3.5.6-1.3 1.2-2.5 1.9-3.3 1.2-1.4 2.7-2.1 4.9-2.4v.9zm2.7-10.4c-.1.1-.3.2-.2.4 0 .1.1.1.4.1.4-.1.8 0 .9.1.1 0 .2-.1.3-.3 0-.2 0-.3.1-.5s.1-.5.1-.7c0-.2 0-.6-.3-.4-.2.2-.5.6-.8.8-.2.2-.3.4-.5.5zm-6.9-29c.2.3.1.6 0 .8v.4c0 .3 0 .5-.1.8-.1.2-.2.3-.4.4-.1.2-.3.4-.2.6 0 .1.1.2.2.2.2.1.3.1.5.1.4.1.7.4 1.1.4.4 0 .7-.3.8-.6.4-1 1-1.3 1.9-.9.9.3 1.8.8 1.9 1.5.1.7-.7.7-.8 1.3 0 .6.6.4.8.4.2 0 .5.1.9-.5s.9-1.1 1.5-.9c.7.3 1.1.8.8 1.5-.3.7-.5 1.5 0 1.8.5.3 1-.4 1.3-.8.3-.4.9-1.1 1.3-.9.5.2.1.8.3 1.2.2.4.4.8.5 1.3.1.6-.3 1.1 0 1.3.3.2.6-.2 1.1-.4.7-.3.9-.7 1.3-1 .6-.5.9-.8.9.1v1.8c-.1.7-.5.9-.2 1.1.4.3.8.1 1 0 .3-.1.7-.2 1.3-.7.5-.5.7-.6.9-.5.2.1.1.7 0 1.2s-.3 1-.4 1.3c0 .3 0 .5.2.6.2.1.5-.1.8-.4.2-.3.4-.6.5-.8.1-.3.3-.4.5-.4s.3.2.2.8c-.1.5-.4 1.3.1 1.5s.6-.4.7-.7c.1-.3.4-1 .4-1.2.1-.2.1-.4.3-.4.2 0 .3.4.2.9-.1.5-.1.9.1 1 .2.1.2.1.9-.1.6-.1.8-.2 1.2-.7.4-.5.4-.8.6-1.2.2-.4.2-.6.6-.6.4.1.6.4.6.8s-.1 1.1.1 1.2c.3.1.5 0 .7-.2.2-.1.4-.5.5-1.2.2-.7.3-1.3.6-1.3s.5.6.6 1c.1.4.1 1.3.4 1.4.3.1.5 0 .6-.5.2-.8.3-.4.4-1.1.1-.5.2-.9.4-.9s.3.4.4.9c0 .5.2.7.4.7s.3-.3.3-.8c0-.4.3-.5.4-1.2.1-.8-.1-1.6.5-1.6.6-.1.9.9 1 1.2.1.3.4 1.7 1.1 1.6.5 0 .6-.4.6-.6 0-.4.4-.9.7-1.3.3-.4.3-.9.3-1.4-.1-.5-.2-.9.3-1 .5-.1.9.3 1.2 1 .3.6.1 1.5.7 2.1.6.6.7 1 .9 1.2.2.2.6.3.9.2.3-.1.5-.4.3-.9-.2-.4 0-.7.2-.8.2-.1.3-.5.1-1-.2-.6-.8-1.8.3-1.5 1.2.3 1.3.4 1.5.8.2.4.3 1.3.3 1.6 0 .3 0 .6.1.8.1.2.3.5.3.8.1.2.1.4.4.4s.5-.3.5-.5-.1-.5.5-1c.4-.4.4-1 .4-1.3-.1-.6-.1-1.2.5-1.2s.5.4.5.7c0 .2.1.5.4 1 .3.4.5.8.5 1.1 0 .3.1.8.5.9.4.1.4.1.6.3.2.2.5.4 1 .5.5.1 1 .3 1.5.7.5.4.8.9 1.4 1 .5.1 1.1.3 1.5.5.4.2.6.5.8.6s.3.5.5.5c.3 0 .4.1.5.2.1.1.2 0 .8 0 .6 0 1 0 1.4.4.4.3.6.6.5 1-.1.4.1.8 0 1.3s.2.7.3.9c.2.2.5.5.6.7.1.3.3.2.3.7 0 .5 0 .6-.2.7-.2.2-.1.6-.4.8-.3.1-.7.3-.5.6.3.3.5.4.7.6.2.2.4.7.4 1.1 0 .8-.2.6-.3 1.3 0 .5 0 .8.1 1.1.1.3.1.3 0 .8-.1.6 0 .9.2 1.2.2.4.3 1 .3 1.4s-.3 1.2 0 2.2c.3 1 .4 1.6.6 2.1.1.5.1.8.3 1.4.2.6.5 2 .7 3.1s0 1.3.3 1.8c.3.4.7 1.5 1.2 2.9.4 1.4.5 2 .6 2.5.1.7-.2.6-.2 1 0 .5-.1 1-.2 1.2-.1.2-.2.3-.2.5s.1.3.1.7c0 .4-.1 1.1-.4 1.8-.2.7-.3 1.1-.7 1.6s-1.2.7-1.8.9c-.6.2-1.2.1-1.5.3-.4.2-.9.2-1.2.2-.3 0-.9-.1-.9-.5-.1-.4 0-.6.3-.9.2-.3.3-.5.2-.8s-.1-.5 0-.6c.2-.1.3-.4-.2-.5-.5-.1-.5-.1-.5-.2-.1-.1-.1-.2.1-.5.2-.2.3-.3.1-.4-.2-.1-.4 0-.5.1-.1.1-.3.1-.5-.1s-.2-.4 0-.6c.1-.2.2-.3.2-.4-.1-.1-.4.1-.7-.1-.2-.2-.3-.4-.1-.5.2-.2.3-.4.1-.5-.2-.1-.4-.1-.7-.2-.3-.1-.8-.6-1-.8-.2-.2-.5-.5-.8-.9-.2-.3-.6-1.5-.9-2-.3-.5-.6-1.1-1-1.6s-.4-1-.8-1.6c-.3-.6-.4-1-.5-1.5-.1-.5-.4-1.2-.5-1.5s-.5-.8-.5-1.1.3-1.6-.2-2.1-1-.6-1.3-.8c-.3-.3-.8-1.3-1.1-1.9-.3-.6-.7-.9-1.4-1.1-.7-.2-1.1-.2-1.4-.4-.3-.2-.5-.9-.7-.9-.2 0-.4.3-.1.8.3.5.6.4.7 1.6.2 1.2 0 1.4 0 1.7 0 .4 0 .8-.3 1.2-.3.4-.5 1-.6 1.3-.1.2-.4.8-.6.7-.2-.2-.4-.3-.4-.5s.2-.6 0-.9c-.2-.3-.3-.5-.5-.6-.2-.1-.3 0-.5.3s-.3.6-.4.8c-.2.4.1.2 0 .6-.2.5-.3.5-.7 1.1-.4.6-.4.5-.6.9-.1.5-.3.9-.4 1.3s-.3 1.1-.2 1.7c.1.6.1 2.1.1 2.8 0 .7-.1 2.6-.1 3.2 0 1.5.7 2.9.8 3.3.2.7.2.8.5 1.2.2.4.6 1.1.7 1.4.1.3.2.9.1 1.3-.1.3-.2.5-.4.6-.2.1-.6-.1-.8-.2-.2-.1-.3 0-.6-.2s-.4-.5-.9-.9-1-.6-1.2-.9c-.3-.3-1.4-1.6-1.8-2.6-.4-1-.4-1.3-.4-1.9s0-1.9-.2-2.8c-.1-.9 0-1.7 0-2.3 0-.6-.2-2.2-.5-2.9-.3-.7-1.4-4-1.6-4.9-.1-.9-.3-1.4-.7-2.5-.3-1.1-.3-1.9-.2-2.5.1-.6-.1-.9.5-2 .6-1 .7-1.6.9-1.9.1-.3.4-.7.2-.8-.1-.1-.2-.1-.7.3-.6.4-.9.7-1.1.7-.2 0-.4.1-.5.3-.2.2-.4.2-.6.3l-.6.3s1.2-1 1.6-1.5c.5-.5 1.4-1.3 1.3-1.4-.1-.1-.5.1-.9.4-.3.3-.7.5-.8.6.1-.1.7-.8 1-1.1.3-.3.7-.7.6-.8-.1-.1-.4 0-1 .5-.6.6-1.3 1.1-1.7 1.3-.3.3-.4.3-.7.5-.3.2-.4.3-.6.5-.2.2-.4.2-.6.3l-.8.4s1-.9 1.6-1.5c.8-.8 1.4-1.2 1-1.5-.2-.1-.6.1-.9.2-.3.1-.2.1-.7.2-.4.2-1.1.5-1.3.6-.2.1-.4.2-.7.4-.4.1-1.1.4-1.3.5-.2.1-.4.1-.7.2-.2.1-.8.3-.8.3s1.3-.9 2.1-1.3 1.3-.9 1.3-1c0-.1-1.4.4-2.3.8-.9.4-1 .4-1.4.8-.3.4-.5.5-.5.5s.5-.7-.2-.6c-2.1.2-4.6 1.3-4.6 1.3 1.5-1.1 3.7-1.8 4.4-2 .7-.2 1.2-.1 1.5-.7.2-.3.3-.6.4-1.1.2-.7.5-1.1.3-1.2-.2-.2-.4 0-.9.3s-1.1.9-1.6 1.3-1.1.9-1.6.9-.7.1-1.1.2c-.4.2-.7.3-1.1.4-.3.1-1.2.6-1.2.6s1-1 1.9-1.5c.8-.5 1-.6 1.8-1.6s.8-1.2 1-1.4c.2-.2.2-.3.1-.5s-.4-.3-.7 0c-.3.3-.6.5-.9.9-.4.4-.6.4-.8.4-.1-.1-.4-.3-.6-.4s-.6-.3-1.1-.1c-.9.3-1.7 1-1.7 1 0 1.4-.4 2.3-.4 2.3-.2-1-.6-1.5-.6-1.5-1.1.8-1.7 1.4-2 1.7-.3.3-.2.3-.4.5-.1.2-.2.5-.3.6-.1.2-.1.3.1.4l.2.2c0 .1 0 .2-.1.3v.9c0 .2.1.4.5.2s.7-.4 1.1-.4c.4-.1.9 0 1.1.1.2.1.1.4 0 .6-.2.2-.2.4-.1.6.1.2.5.8.6 1 .1.2.4.2.6.4.3.2.3.5.8.6.6.1.6-.1.9.1.2.1.4.4.8.5.4.1.5.1.9.3.3.2.5.1.8.1.5.1.7.2.7.2.2 0 .1-.3.4-.7.4-.5.7-.8 1-.9.4-.1.5-.1.6-.4.1-.3-.2-.3 0-.6s.7-.7.9-.8c.2-.1.6 0 .7.1.1.1.3.3.4.2.1-.1-.1-.4.5-.2.5.2 1.1.2 1.7.9 1.4 1.5 1.3 2.8 1.3 2.8-.4-.8-.9-1.1-1.1-1.4-.3-.2-.4-.4-.8-.5-.4-.1-.8 0-1-.1-.2-.1-.2-.3-.5-.3s-.2.3-.5.5-.6.3-.4.6c.2.3.4.4.5.4.2-.1.7-.3 1.3.1.6.4.8.6 1.3 1.3 1.2 1.6.7 2.9.7 2.9-.2-1-1.1-2.1-1.3-2.4-.2-.2-.4-.5-.9-.5s-.9.1-1.1-.1c-.2-.1-.2-.2-.5-.1s-.7.4-.9.4c-.3 0-.3 0-.4-.2-.1-.2-.3-.2-.4-.2-.1.1-.2.1-.3.5-.1.4-.4.5-.6.7-.2.3-.3.5-.5.5s-.3-.2-.5-.2c-.2.1-.3.3-.7.4-.3 0-.7-.1-.7-.2s-.1-.3-.2-.4c-.1-.1-.3-.1-.5-.3-.2-.1-.2-.4-.4-.5-.2 0-.7 0-1-.2-.3-.2-.4-.9-.6-1-.2-.1-.4.1-.8-.2-.4-.2-.4-.6-.7-.7-.3-.1-.5 0-.7 0-.2 0-.2-.1-.7.3-.5.4-.9.9-.9.9s.5.2.8.4c.5.2.6.2.7.8.1.5.3.6.5.6s.4.1.7.3c.4.3.4.5.5.6.6.1.7.1.9.1.1 0 .3 0 .5-.2s.4-.2.6-.2c.2 0 .4.2.5.2s.3 0 .5.2.6.5.7.6c.1.1.2.2.4.2.4.1.4-.1.7-.1.2 0 .5.1.6 0 .1-.1.4.1.7.1s.4.1.5.1c.1-.1.1-.2.1-.3 0-.2.3-.5.7-.4.5.1.9.3 1.6 1.1 2.1 2.5 1.5 4.7 1.5 4.6-.2-1.3-.9-2.6-1.8-3.3-.5-.4-.8-.2-1-.4-.1-.1-.4-.2-.5-.1-.1.1.1.2.2.3.1.1.2.1.2.2s-.2 0-.5 0-.6 0-.7.4c0 .4.3.4.5.5.2.1.4.1.4.2.1.1.2.1.3 0 .1-.1.5.1.6.2.2.1.6.4.8.8.4.8.1 1.6.1 2 0 .5-.1.8-.4 1.4-.3.6-.7.8-.9 1-.2.2-.3.2-.3.2s.5-.5.7-1.7c.2-1.3 0-1.5 0-1.6-.1-.1-.1-.3-.4-.5-.3-.2-.3-.4-.4-.5 0-.1 0-.1-.1-.2-.1 0-.1.1-.3.1-.2-.1-.5-.2-.6-.3-.2-.1-.3-.2-.4-.2-.1 0-.4 0-.6.1-.2 0-.6-.1-.8-.2-.1-.1-.5-.4-.5-.5-.1-.2-.2-.5-.2-.7 0-.1 0-.3-.2-.4-.2-.1-.2-.1-.4.1-.1.1-.3.2-.5.1-.2 0-.4-.1-.5-.2l-.3-.3c-.2-.1-.4-.1-.5-.1-.2 0-.4-.1-.5-.2-.2-.1-.1-.2-.2-.4-.1-.1-.2-.1-.7-.2-.5-.1-.8-.2-.9-.3-.1-.1-.1-.2-.3-.2-.2-.1-.5 0-.6 0-.1 0-.3.1-.5.1l39.1 39.1c1.1-.9 2.1-1.9 3.1-2.9 18-18 18-47.3 0-65.3-14.8-14.8-37.1-17.4-54.6-8-.4.3.1.4.3.7zm43.5 47s-.6.6-1.1.9c-.5.3-.7.5-1.7.8-1.1.4-1.8.2-1.8-.2s.3-.5.7-.6c.4-.1.7-.1 1.8-.3 1.1-.1 2.1-.6 2.1-.6zm-4.2-11.6c.2-.1.4 0 .4 0s-.2.1-.4.3c-.2.2-.3.1-.3 0 .1-.3.1-.3.3-.3zm0 1h.7l-.6.3c-.2.1-.4.2-.4-.1 0-.2.2-.2.3-.2zm-.6 1.1c.2-.3.4-.2.6-.1.2.1.8 0 .8 0s-.2.2-.3.2c-.1 0-.2.1-.6.1-.3.1-.6.1-.5-.2zm-.6 1c.1-.2.2-.2.3-.2.1 0 .2 0 .6.2.4.1 1 0 1 0s-.2.2-.4.2-.4.1-.9.2c-.5 0-.7-.1-.6-.4zm-.2.9c.2 0 .4 0 .8.2s1.2.1 1.2.1-.4.2-.6.2c-.2 0-.4.1-.9.1s-.8 0-.8-.3c0-.2.1-.2.3-.3zm.3 1.7c.2 0 .4 0 .9.1.4 0 1 0 1.5-.2 0 0-.3.3-.7.5-.2.1-.5.2-1.4.3-.9.1-1-.1-1-.4 0-.6.3-.4.7-.3zm1.2 1.7c-.2 0-.6.2-1.1.3-.4.2-.8.2-.7-.2 0-.3.2-.4.5-.4h.8c.5 0 1.5-.2 1.5-.2s-.8.5-1 .5zm.9 1.3s-.5.4-1.1.7c-.4.2-.8.3-1.1.4-.3.1-.5-.1-.6-.5 0-.6.2-.5.4-.4.2 0 .4.1.7 0 .3-.1 1-.1 1.7-.2zm-2.8 2.3c-.1-.7 0-.7 1.1-.6.7.1 1.6 0 1.9-.1.3-.1.8-.2.8-.2s-1.4.7-2.2 1c-.8.3-1.6.6-1.6-.1zm.1 1.4c0-.6.3-.5 1.4-.7.7-.1 2-.5 2-.5s-.5.4-.9.6c-.4.3-.9.5-1.3.7-.4.2-1.2.3-1.2-.1zm.3 1.7c-.1-.2-.2-.3 0-.4.2-.1.9.2 1.2.3.4.1 1 .4 1.7.3 0 0-.7.3-1.8.4-.5 0-.8.1-1.1-.6zm3.9 3.9c-.4.2-.8.4-1.1.6s-1.1.4-1.2 0c-.1-.5.6-.6 1.4-.7.4-.1 1.4-.2 1.4-.2s-.3.2-.5.3zm-1.1-.8c-.5.2-1.2.4-1.3 0-.1-.3.2-.5.9-.5.6 0 2.3-.4 2.3-.4s-.7.4-1.9.9zm1.4-1.7c-.8.4-1.5.7-2 .8-.5.1-1.1-.1-1.2-.4-.1-.2-.2-.5.4-.6h1c.7 0 1.8-.2 2.2-.3.4-.1 1.1-.3 1.1-.3s-.7.4-1.5.8zm5.2-13.6c.1.1-.1.2-.2.2h-.2s.3-.3.4-.2zm0 .7c.1-.1.2-.1.3 0 .1.2-.1.2-.3.2h-.5s.4-.1.5-.2zm-.2.8c.4-.2.6-.2.7 0 0 .2-.2.3-.5.3-.2 0-.8-.1-.8-.1s.4-.1.6-.2zm.5.8c.2-.1.5-.1.5.1.1.3-.2.4-.7.5-.7.1-1.2-.1-1.2-.1.7-.1 1.2-.4 1.4-.5zm0 1.1c.5-.2.7-.3.9 0 .1.3-.2.5-1.1.7-1.4.2-1.9 0-1.9 0 1-.2 1.8-.6 2.1-.7zm-.3 1.6c.6-.3.9-.4 1.1-.5.2-.1.5-.3.7.2.2.4-.4.6-.8.8-.4.2-.8.3-1.6.4-1.1.1-1.6 0-1.6 0 .9-.4 1.6-.7 2.2-.9zm.4 1.2c1-.3 1.2-.4 1.3-.5.1 0 .5-.1.7.3.2.4.3.7-.9.9-.9.1-1.9 0-2.3-.1s-.6-.2-.6-.2.8 0 1.8-.4zm-1.3 1.9c.1 0 1-.1 1.9-.4.9-.3 1.4-.4 1.5-.5.2-.1.4-.1.7.3.2.4.2.7-1 .8-1.2.1-2.1 0-2.3 0-.1 0-.7-.1-.8-.2zm1.6 1.4s1-.4 1.7-.7c.8-.3.9-.3 1.1-.3.2 0 .4.1.5.3.2.5.1.6-.6.6s-.9.1-1.2.1c-.2 0-.6.1-.9 0h-.6zm1.9.7c.8-.2 1-.3 1.1-.4.1-.1.3-.1.4.1.1.1-.4.4-.8.6-.4.2-.8.2-1.1.2s-.8-.1-.8-.1h-.2s.6-.2 1.4-.4zm-1.3 1.5c.1 0 .8-.1 1.6-.5.5-.3.7-.4 1.1-.7.7-.5 1.1-.5 1.2 0 .1.5-.3.6-.9.8-.5.2-.8.4-1.1.4-.4.1-.6.1-1 .1s-.8 0-.9-.1zm1 .7s.3-.2 1.3-.4 1.1-.4 1.4-.5c.3-.1.6-.2.8.1.1.2-.3.4-.7.5l-1.2.3c-.4.1-.8 0-1 0h-.6zm.3.7c1.1-.1 1.6-.2 2.1-.4.6-.3 1.1-.4 1.3-.5.2 0 .5 0 .7.3.2.4 0 .8-.7.9-.7.1-1.1.2-1.4.1-.4-.1-.7-.1-1-.3-.5 0-1-.1-1-.1zm2.9.9c.3-.1.8-.3 1.1-.4.3-.1.5-.2.8.1.2.2 0 .5-.4.6-.4.1-.9.2-1.1.1-.3 0-.7 0-.9-.1-.2 0-.6-.1-.6-.1s.8-.1 1.1-.2zm1.9 2.5c-.3 0-.8 0-1-.1-.2-.1-.4-.2-.7-.3-.3-.1-1-.4-1-.4s.5.1 1.1 0h1.2c.7-.1.8-.2.8.4.1.4-.1.4-.4.4zm-.2-1.3c-.3 0-.6 0-.8-.1-.2-.1-.7-.2-.7-.2s.8-.1 1.2-.2c.4-.1.8-.2.9-.2.1 0 .2 0 .3.2.1.3-.5.5-.9.5zm-39 1.2l1.8-5.7c-3.2-1.2-8-1.6-12.7 3.1-4.7 4.7-3.3 13.1-3.2 13.1s5.7-2.2 5.7-2.2-1.5-5.2 1.3-7.6c2.8-2.4 7.1-.7 7.1-.7zm-9.2-.3c-2.8 2.8-2.1 7-2 7.8l-.8.2c-.1-.5-1-5.4 2.2-8.6 2.3-2.3 5.2-3.1 8.9-2.7l-.1.9c-3.5-.5-6.1.3-8.2 2.4zm.3-32.3c-.2 0-.3.2-.4.4-.1.2-.1.3 0 .5 0 .3-.1.6 0 .8.1.4.4.8.4.8l.4-.4c.1-.1.3-.5.6-.8.3-.3.4-.8.5-.8 0 0-.6-.2-.8-.2-.4-.3-.5-.3-.7-.3zm-3.2 7c.1-.1.4-.6.7-1.1s.1-.7 0-1c-.1-.3-.1-.5-.2-.7-.1-.1-.2-.3-.2-.6s0-.5-.1-.9c-.2-.3-.2-1.8-.2-1.8-.1.1-.5.4-.8.6-.3.2-.6.6-.8 1-.2.4-.3.3-.7 1-.4.6-.5 1.3-.5 1.2l2.5 2.5c.1.1.2-.1.3-.2zm-1.3-7.5c0-.2-.4-.1-.9-.2-.4-.1-.6-.2-.8-.3-.2-.1-.5-.3-.9 0s-.6.5-.8.7c-.4.5-.4.3-.6.6-.4.4-.6.9-.8 1l2.6 2.6s.2-1 .4-1.5.4-.6.6-1c.2-.4.4-.8.6-1.1.3-.4.6-.6.6-.8zm51 18.6c0 .2.3.7.4 1.1.1.4.7 1 1.5 1.8.8.7 1.1.2 1.2-.1.2-.8.1-1.5-.3-2.2-.2-.5-2.8-1.9-2.8-.6zm-56-18.4l.3-.6.7-.7c.5-.6.8-1.1.8-1.1s-.8.3-1.3.4c-.5.1-.5-.1-.6-.4-.1-.2-.2-.6-.4-.2s-.3-.1-.5 1.1c-.1 1.1-.2 1.4-.4 1.8l.8.8c.2-.3.4-.7.6-1.1zm59.1 7.9c-.5-.2-.9.1-1.1.5-.1.2-.2.4-.4.6-.2.2-.5.4-.7.7-.1.1-.1.3-.1.4v.3c0 .3-.2.6-.5.8l-.1.1c-.2.1-.4.1-.6.1h-.8c-.5 0-.7.3-.7.7 0 .1 0 .2.1.4 0 .1 0 .2.1.3.1.1.1.3.1.5 0 .1-.1.3-.2.4-.1.1-.1.1-.1.2v.2c0 .1.1.1.1.2s0 .1.1.2v.2c0 .1 0 .2-.1.3l-.1.1v.4c0 .2.1.3.1.5.1.2.2.4.3.5.2.2.9.5 2.5.5s2.1-.8 2.2-1.4c.1-.6 0-1.2 0-2.9-.1-1.7.2-1.3.4-2.6.2-1.5.1-2-.5-2.2zm-33.3-4.8c.1 0 .2 0 .2-.1.1-.1.3-.1.4-.2.2-.1.3-.4.4-.5.1-.1.3-.1.4-.2.1-.1.2-.2.2-.3 0-.1-.1-.2-.2-.1-.2.1-.3.2-.4.3-.1.1-.3.2-.4.3-.2.1-.4.3-.6.4l-.3.3-.2.2c-.1.2.1.1.2 0 .1 0 .2-.1.3-.1zm-10.9 19.6l-3.4-3.4-15.4 15.1 3.7 3.5 15.1-15.2zm-4-.1l.7.7-11.1 11.1-.7-.7 11.1-11.1zm46.9-21.2c-.6-.3-.9-.1-1.2 0-.3.1-.5.2-.9 1s-.3 1.3-.4 1.7-.3.7-.8.8c-.5 0-.7-.2-1.1-.2-.3-.1-.6-.2-1.3 0-.7.2-1.1.3-1 1.3 0 1 .1 1.8 1.4 1.8 1.2 0 1-.4 2.4-.4 1.5 0 2.2-1.2 2.7-2s1.2-2.3 1.1-2.8c0-.6-.3-.9-.9-1.2zm-40.3-3.7c.1-.2.2-.7-.1-.7-.3 0-.3.3-.3.6 0 .4-.1.6 0 .7 0 0 .3-.4.4-.6zm-4.1 3.5c-.1.6.1 1.7.1 1.7s.3-.4.6-.7c.3-.3.5-.6.9-1s.4-.3.4-.5-.3 0-.6.2c-.2.1-.6.4-.7.3-.1-.1.1-.2.3-.4.2-.2.7-.6.8-.8.1-.2.1-.4.1-.7 0-.2 0-.9.1-1.4.1-.5.1-.8-.2-.8-.2 0-.4.4-.4.8-.1.5-.3.7-.4 1.7-.1.5-.2.9-.2.9s-.1-.4 0-.7c.1-.3-.1-.5-.1-1.1 0-.6-.3 0-.5.2-.1.2-.2.3-.2.6s-.1.7-.1 1.1c0 .3.1 0 .1.6zm3.5-1.8c.1.1.3-.1.6-.3.2-.2.5-.2 1-.6.5-.4.5-.5.4-1 0-.3-.3 0-.6.2l-.9.9c-.3.4-.6.7-.5.8zm165.1-86.5c-12 9.5-31.9 11.7-47.1-1.2-5.5-4.6-9.4-10.9-11.1-18-3-12-.4-23.1 6.8-32.3l-37.1-37.1c-19.5 19.5-39.2 39.2-59.1 59 5.1 5 10.2 10.2 15.4 15.2 1.9 1.8 2.1 3 .1 4.9-3 2.7-5.9 5.6-8.6 8.6-1.7 1.9-2.8 1.9-4.5 0-5-5.3-10.2-10.4-15.2-15.5L80.8 269.1c12.3 12.3 24.7 24.7 37.2 37.1 17.4-9.9 34.9-5.7 45.1 4 6.9 6.5 10.9 14.8 11.5 24.5.5 8.2-1.9 15.7-5.9 22.5 12.5 12.5 24.9 24.9 37.1 37.2l145.5-145.5c-5.1-5.1-10.4-10.4-15.8-15.7-1.3-1.3-1.5-2.2 0-3.6 3.1-2.9 6.2-6 9.1-9.1 1.8-1.9 3-1.7 4.7.1 5.1 5.3 10.3 10.4 15 15.1l59-59c-12.1-12-24.4-24.3-36.7-36.6zM258.2 329.4l-31.1-31.1c-13.3-.4-25.8-5.8-35.2-15.3-9.4-9.4-14.8-21.9-15.3-35.2l-31.1-31.1 25.7-25.7 19.6 19.6c.3-.3.6-.6.8-.9 9.8-9.8 22.8-15.1 36.6-15.1s26.9 5.5 36.7 15.3c9.8 9.8 15.2 22.8 15.3 36.7 0 13.8-5.3 26.8-15.1 36.6-.3.3-.5.5-.9.8l19.6 19.6-25.6 25.8zm33.2-163.1l-9.9 9.9c-1.2 1.2-2 1.2-3.1 0-5.3-5.4-10.6-10.7-15.9-15.9-1.1-1.1-1.1-1.9 0-2.9 3.3-3.3 6.7-6.6 9.9-9.9 1.3-1.4 2.4-1.3 3.7.1 5.1 5.2 10.2 10.2 15.3 15.4.5.5.8 1.1 1.2 1.8-.4.5-.7 1.1-1.2 1.5zm36.1 36.2c-3.2 3-6.2 6.2-9.4 9.3-.6.5-1.2 1-2 1.6-.8-.5-1.4-.9-1.9-1.4-5.1-5.1-10.2-10.3-15.4-15.3-1.2-1.2-1.2-2 0-3.1 3.3-3.2 6.6-6.4 9.7-9.7 1.5-1.5 2.5-1.3 3.9.1 4.9 5 9.9 10 15 15 1.5 1.3 1.5 2.1.1 3.5zm-86 87.3c1.8-1.7 5.1-5.1 6.2-7.3 1.1-2.2.1-4.9-1.8-6.7-1.4-1.3-3.1-1.7-4.6-1.5l2.8-1.9-3.7-4.3-10 7.2 4.2-6.5-3.1-3.3-6.6 4.3 7.5-9.7-4.5-4.3-14.2 20.9 3.5 3.5 7.8-5.6s-3.2 5.5-5.2 7.9l3.6 3.9 9.3-6.3c-2.8 3-5.9 7.2-1.9 11.3.4.4.8.8 1.2 1.1 3.2 2.2 6 .4 7.9-1.3.7-.5 1.2-1 1.6-1.4zm-17.7-6.8l-.3-.3 5.8-11.7-.2-.2c-1.3.7-3.2 1.6-5.1 2.5-1.7.9-6.5 3.2-6.6 3.3l-.5-.5c.3-.5 4.2-6.2 5.8-8.4 2.9-4.1 5.7-8.1 6-8.5l.6.6c-2.6 3.7-8 11.6-10.3 14.9 2.6-1.3 7.4-3.6 11.2-5.6l.7.7-5.5 10.9 15-9.9.6.7-17.2 11.5zm9.1 7l-.3-.3c-3.3-3.3.2-7.1 2.1-9.1 1.5-1.6 6.3-6.5 9.8-3.4.1.1.2.2.3.2 2 2 1.5 4.5-.9 7.2l-.1.1c-2.5 2.8-5.3 6.1-8.1 6.3-1 0-2-.3-2.8-1zm20.6 4.7c2-2.1 3.1-3.7 3.2-4.7.1-.8.3-1.6-.7-3.2-.3-.5-.7-1-1.3-1.6-.1-.2-.3-.3-.4-.4-2.2-2.4-3.5-3.4-3.5-3.4l-9.5 9.5-3.5 3.5-2 2 3 3 4.5-4.5.8.4c-1 3.2-3.1 7-3.1 7l3.3 2.2c2.6-4.4 4.1-8.2 4.1-8.2s3 .5 5.1-1.6zm-6.8 0l-2.4 6-.7-.5s2-4.7 2.5-5.9l-2.2-1.5-.6-.4-.8.8-2.8 2.8-.6-.6 1.8-1.8 4-4 5.8-5.8s1.2.7 2.2 1.8c.6.6 1.2 1.4 1.4 2.3 0 .2.1.3.1.5.2 2.2-1 3.6-1.9 4.5l-.1.1c-1 1.1-1.8 1.5-2.8 1.6-1.1.2-2.7.1-2.9.1zm-3.5-10.6c2.8-3.2 1.6-5.3.8-5.9l-.2-.2c-1.8-1.6-4.7-.7-8.5 3.2-4 4.2-3.7 6.2-2.1 7.8.1.1.2.2.3.2.7.6 1.4.9 2.2.8 2.5-.2 5.2-3.4 7.4-5.9h.1zm-3.1.7c-2.5 2.5-4.6 3.9-5.7 2.9-1.1-1 .9-3.2 2.6-5 2.1-2.3 4.7-4.1 5.7-3.1.8.6.2 2.5-2.6 5.2zm11.9 7.5c.8-.9 1.8-1.8 1.6-3.9v-.1c-.1-.9-.6-1.7-1.2-2.3-.5-.5-1-.8-1.5-1.1l-4 4-3 3 1 .7 2 1.4c.4 0 1.7 0 2.6-.1.9-.1 1.7-.5 2.4-1.3l.1-.3zm-.6-2.7c-.1.6-.5 1.1-1.1 1.7-1.4 1.2-3.7.6-3.7.6l.1-.1c.6-.6 3.6-3.7 4.4-4.4.3.8.4 1.5.3 2.2zm-40.7-4.2c.1 0 .4.1.2-.1s-.2-.4-.2-.5c0-.1 0-.2-.1-.2s-.2.2-.1.4c0 .3.1.3.2.4zm.9-3.2v-.3c0-.1-.1-.2-.3-.1-.1 0-.2.1-.4.2s-.3.2.1.2h.6zm51.7 1.6c.5-.4.8-.8 1.2-1.1 9.6-9.6 14.8-22.4 14.8-36 0-13.6-5.4-26.4-15-36-9.6-9.6-22.4-15-36-15-13.6 0-26.4 5.2-36 14.8l-1.2 1.2-.3.3-19.6-19.6-24.4 24.4 30.7 30.7v.2c.4 13.1 5.7 25.5 15 34.8s21.6 14.6 34.8 15h.2l30.7 30.7 24.4-24.4-19.6-19.6.3-.4zm16 19.6l-21.5 21.5-29.7-29.7c-12.3-.1-24.7-4.9-34.1-14.4-9.4-9.4-14.2-21.8-14.4-34.1l-29.8-29.8 21.5-21.5 19.6 19.6c.9-1.1 1.9-2.1 2.9-3.1 19-19 49.8-18.9 68.9.2 19.1 19.1 19.2 49.9.2 68.9-1 1-2.1 2-3.1 2.9l19.5 19.5zm-34.5 1.3s3.9 4.1 5.7 5.9l3.5-3.5-2.2-2.2 11.4-11.4-3.4-3.4c-.1.1-15.1 14.6-15 14.6zm4.2-.3l2.8 2.8-.7.7-3.3-3.3 11.8-11.8.5.5-11.1 11.1zM183.9 259c.4 0 .5 0 .6-.2.1-.2.7-.8.7-.8s-.5.8.3.6c.8-.2 1-.1 1-.1s-.5.6-.7.8c-.2.2.2.1.6.1h1.4c.3 0 .9.1.9.1s-.7.2-.9.3c-.2.1-.3.3-.5.1-.3-.2-.3-.1-.3-.1-.1.1.2.2.1.4-.1.1-.3-.1-.5 0s-.3.2.1.4.8.3 1 .4c.2.1.5.4.5.4s-.6-.1-.7.1c-.1.2.3.5.5.7.2.2.4.3.5.2l.2-.2s0 .3.1.5c0 .2 0 .2-.1.3-.1.1-.1.2.1.3.1.1.4.2.4.3 0 .1-.2 0-.3.1-.1 0-.2.1-.1.3.1.2.1.3.1.5v.2c.1 0 .1 0 .4-.3l.7-.7c.1-.1.1-.2-.1-.2h-.4l.3-.3c.2-.1.3 0 .5-.1s.3-.2.3-.3c0-.1-.2-.1-.3-.1h-.2s.2-.1.1-.2-.2 0-.4 0c-.2.1-.3.1-.4.2-.1.1-.4.3-.4.3s.2-.3.2-.4c0-.1 0-.4.3-.5.3-.1.5-.2.7-.1.2 0 .3.1.3 0 0 0 .1-.3 0-.4-.1-.1-.4-.1-.4-.1s.2-.1.3-.2c.2-.1.4 0 .5 0 .1.1.2 0 .3.1v.3c0 .1 0 .2.1.2s.3 0 .4-.1c.2-.1.2-.2.5-.2h.7s-.3.2-.4.2c-.1.1-.2.1-.4.1h-.3c-.1.1-.1.2 0 .3 0 .1.2.1.4.1.2-.1.4-.1.5-.1.2 0 .4 0 .5.1s.3.1.4.2c.1 0 .3.1.3.1s-.4-.1-.6 0c-.1 0-.3.1-.3.2s.2.2.3.2c.1 0 .3.2.4.2.1.1.2.2.2.3s.1.2.1.2-.3-.3-.5-.4c-.2-.1-.3-.1-.3 0s-.1.1 0 .2l.3.3s-.3-.1-.4 0c0 .1-.1.1.1.3l.5.5c.1.1.3.5.3.5l.1.2s-.3-.2-.4-.2c-.1 0-.2 0-.2.1s0 .1.1.2.2.1.2.3c0 .1.1.3.1.4 0 .2.1.3.2.4h.5c.2 0 .7-.1.7-.1s-.3.2-.4.3c-.1.1-.1.1-.1.2s.4.1.5.1h.6c.3 0 .7.1.7.1s-.5.1-.7.2c-.2.1-.2.2-.2.2 0 .1.2.1.3.1.1 0 .5.1.5.1s-.2.1-.1.2c0 .1.3.2.3.3 0 0-.2.1 0 .2.3.2.6.6.5.6-.4-.2-.8-.4-.8-.3 0 .1.1.3.3.5.2.2.4.5.4.5s-.6-.2-.7-.3c-.2-.1-.3-.1-.3-.1s-.1 0-.2.1.1.2.3.3c.2.1.4.1.4.2.1.1.1.1.1.2s.1.2.1.2l.2.2s-.2 0-.3.1c-.1.1-.1.1 0 .3.1.2.2.3.2.4s.1.2.1.2c.1 0 .1 0 .2-.1 0-.1.1-.1.1-.1s.1.3.2.2c.1 0 .2-.2.2-.4 0-.1.2-.4.2-.5v-.1s.1.2.2.2c.1.1.1.1.2 0 .1 0 .1-.2.1-.4-.1-.2-.1-.3-.1-.5s.2-.4.2-.4.1.2.2.1c.1 0 .2-.2.2-.3v-.3l.2.2c.1.1.1.3.1.3s.1.1 0 .3c-.1.2-.1.3-.3.5-.1.2-.2.5-.2.6 0 .1.1.2 0 .3-.1.1-.1.3-.1.4.1.1.2 0 .6-.3.4-.3.5-.3.5-.3s-.1.2 0 .3c.1.1.3 0 .5-.1s.6-.2.7-.2h.4s-.4.3-.5.4c-.1.1-.3.2-.3.3 0 .1.2.1.3.1h.4s-.4.3-.6.4c-.2.1-.3.3-.2.4.1.1.2.1.5.1h.8c.1 0 .5.1.6.1.1 0 .4.1.4.1l-.6.2c-.3.1-.5.2-.6.3-.2.1-.4.1-.6.1-.2 0-.7.1-.7.3 0 .2.3.2.5.3.2.1.7.4.7.4s-.5-.1-.8 0c-.3.1-.3.1-.4.2 0 0 .1.2.3.4.1.1.3.3.5.3.3 0 .4-.1.5-.1h.3s-.3.2-.4.3c-.1.1-.1.2-.1.3 0 .1.3.1.4.1.2 0 .4-.1.5 0 .1 0-.1.2 0 .2.1.1.3.1.6.2.2.1.4.1.6.2.1 0 .1.1.2.1 0 0 .2.1.1.1h-.8c-.1 0-.2 0-.3.1-.1.1 0 .1.1.2.1 0 .1.1.2.1 0 0 .1 0 .1.1.1 0 .2.1.3.1.1 0 .1.1.2.1l.1.1h-.6c-.2 0-.4.1-.3.2l.4.4c.1.1.2.2.3.1.1 0 .1-.1 0-.2s-.1-.2.1-.2.3.1.4.2c.1.1.2.3.3.2.1 0 .1-.3 0-.4 0-.1-.1-.2 0-.2 0 0 .1 0 .1.1l.2.2c.1.1.2.1.3.1.1-.1 0-.2.4-.4.5-.2.4-.2.5-.3.1-.1.2-.1.4 0h.9s-.4.2-.5.3c-.1.1-.2.2.1.3.3.1.6.2.8.3.2.1.3.1.5.2.1.1.4.2.4.2s-.6-.1-.8-.1c-.2 0-.3.2-.2.3.1.1.2.1.4.2s.4.1.5.1c.1 0-.2.1 0 .3.4.3.6.6.6.6s-.4-.1-.7-.1-.6.1-.1.5c.4.4.6.5.6.6v.4c0 .1.1.4.1.4l-.4-.2c-.1-.1-.2-.1-.2-.3 0-.1 0-.2-.1-.2s0 .1-.2.1-.1-.1-.2-.1c-.1.1-.1.1 0 .3.1.1.3.3.3.4 0 0 .1.1.1.2.1.1 0 .2 0 .4s.1.4.1.4l-.1.1c-.1 0-.1 0-.1-.1s-.1-.1-.1-.2-.1-.2-.2-.2-.1.1-.1.1c0 .1 0 .2-.1.2l-.1-.1-.1-.1-.1-.1s-.1 0-.1-.1l-.1-.1-.1-.1s-.1-.1-.1 0c-.1 0-.1.2-.3.4-.2.2-.2.3 0 .6.1.1.1.2.2.2.1.1.1.1.1.2v.2c0 .1 0 .2-.1.3v.1c0 .1.2.2.2.2.3 0 .4.1.6.2.2.1.3.1.5 0s.3-.2.1-.4c-.2-.2-.3-.2-.5-.2-.1 0-.2 0-.2-.1 0 0 0-.1.1-.1s.1-.1.2-.1c.2 0 .5.1.6.1.1 0 .3.1.3.1v-.5c0-.2-.1-.3 0-.5.2-.2.4-.3.6-.5.2-.2.2-.3.5-.3.2 0 .4 0 .5-.1 0 0-.2.3-.2.4 0 .1 0 .3.2.2.2-.1.3-.2.5-.2s.3 0 .4-.1c.1-.1.3-.2.5-.1s.3.1.4.4c.1.3.1.4.1.6.1.3.1.2.2.4.1.1 0 .4.1.6v.4s-.2-.2-.2-.4c-.1-.2-.1-.3-.2-.2-.1 0-.2.2-.2.2l-.2-.2c-.1-.1-.2-.2-.4-.2s-.5.1-.5.2.1.1.3.2c.2.1.3.1.4.3.1.2.3.3.4.4.1.1.3.1.3.1s0 .2.1.5.3.7.3.7l-.4-.4c-.1-.1-.1-.2-.2-.1l-.2.2s-.3-.3-.3-.5-.1-.4-.3-.5-.4-.1-.4 0c-.1.1.1.3.3.6.2.3.4.4.5.7.2.3.1.3.2.5.1.1.3.4.3.4s-.4-.3-.5-.2c-.1.1 0 .2 0 .3 0 .1.1.2.1.2s-.3-.2-.4-.3c-.1-.1-.2-.2-.3-.2-.1 0-.2-.1-.3 0-.1.1.1.1 0 .2s-.2 0-.1.2.3.5.3.5-.3-.1-.5-.1-.2 0-.2.3c0 .2.1.2.3.3.2.1.4.1.5.2.1.1.2.1.2.1l.2-.4c.1-.2 0-.2.3-.3.3 0 .7-.3.7-.3-.1.3-.3.5-.4.6-.1.1-.1.1.1.2.3.1.6 0 .6 0-.3.4-.4.3-.6.4-.2.1-.2.3-.2.5 0 .1-.1.6.4.2.5-.4.7-.6.7-.6s.3.1.6 0h.8s-.8.4-.7.5c0 .1.3.1.5.2.3.1.8.3.8.3s-.3.1-.1.4c.3.2.6.6.6.6h-.4c-.1 0-.2.1-.3-.1-.1-.2-.2-.2-.2-.2-.1 0 0 .2 0 .2-.1.1-.2-.1-.4-.1s-.2.1-.1.2c1 .3 1.8.9 1.9 1 3.2.9 6.4 1.5 9.7 1.7l-43.2-43.2c.2 2.3.7 5.6 1.6 8.7z"/><path fill="#FFF" d="M274.4 303.3l1-.9-.7 1.3.1.1 1.3-.7-1 1 .2.2 1.1-1.2-.3-.2-1.2.7v-.1l.7-1.2-.3-.2-1.1 1.1zm-23.5 7.8l3.4 3.4c1 1 6.1 4.8 12.5-1.8 6.8-7 4.3-11.7-1.1-16.5L251 311.1h-.1zm14.6-12.7l.5.5.2.2c1.4 1.4 3.3 3.5 2.5 6.8-.7 3-2 4.1-3.3 5.3-.2.1-.3.3-.5.5-1.6 1.5-4.3 2.6-7.1 1.7-1.7-.6-2.8-1.6-3.4-2.1l-.8-.8 11.9-12.1zm-7.4 14c2.4.8 4.7-.2 6.1-1.5l.5-.5c1.3-1.1 2.5-2.1 3-4.9.6-3-.9-4.6-2.2-5.9l-10.7 10.7c.6.6 1.6 1.6 3.3 2.1zm7.5-9.8c1 1.2 1.6 3.3-1.7 6.4-3.2 3.1-6 1.4-6 1.4l7.7-7.8zm8.2.2l1-1 .3.3.1-.2-.7-.7-.2.1.3.3-1 1zm-69.3-22.9c.1-.1 0-.4 0-.5 0-.2 0-.2.1-.4s.2-.2.1-.3c0-.1-.2-.1-.2-.1s-.2 0-.3-.1c-.1-.1 0-.2-.3-.2-.2 0-.3.3-.2.5.1.2 0 .3-.1.4-.1.1-.1.1-.1.2s.1.2.2.2.2.1.3.2c.2 0 .3.2.5.1zm-1.5 1.7c-.4.2-.2.3-.1.4.1.1.1.1.4.3.2.1.3.1.4.1.1 0 .1-.1.1-.3 0-.1 0-.2-.1-.5-.2-.4-.4-.2-.7 0zm-3.6-6.8c.1 0 .2.2.4.3.2.1.2.1.4 0 .1-.1.3-.2.2-.2 0 0-.3-.1-.5-.2-.6-.1-.6.1-.5.1zm3.3 3.7c.1 0 .1-.3.2-.5s0-.2-.2-.4-.2-.3-.3-.2c-.1 0-.2.2-.2.4-.1.2.1.3.2.4.2.1.3.3.3.3zm.6 2c.2-.1.3-.3.3-.4 0-.1-.1-.2-.2-.2s-.1 0-.3-.2c-.1-.1-.3-.1-.5 0-.3 0-.2.2-.1.2s.1.1.3.2c.2.1-.1.2-.3.2-.2 0-.1.1-.1.3.1.2.3.1.4.1.1.1.3-.1.5-.2zm1.7 1.2c-.1-.2-.1-.1-.2-.1-.1-.1 0-.2 0-.6.1-.4-.2-.3-.4-.2-.2.1-.3.2-.2.3 0 .1.1.1 0 .4 0 .3-.1.4 0 .4.1.1.1 0 .1 0 .1 0 .1.2.1.4s.1.3.2.5c.2.1.3.1.3.1s.1-.2.1-.3c0-.1 0-.2.1-.3.1-.1.1-.2 0-.3.2 0 .1-.1-.1-.3zm.6-3.6c.2-.3.3-.4.2-.5 0-.1-.1 0-.4.1-.2 0-.3.2-.2.4.1.3.2.3.4 0zm-7.1-4.2c-.1-.1-.1-.1-.2-.1s-.1-.1 0-.2c.1-.2.2-.2.2-.3 0 0-.3-.1-.5-.1-.6-.1-.3.3-.2.4.1.1.1.3.3.6.1.3.2.2.3.2.1 0 .3-.1.4-.2 0-.1-.2-.2-.3-.3zm3.1 6.7c-.2 0-.2.2-.2.2 0 .1.2.1.4.2.2 0 .3.1.3 0s0-.2-.1-.3c-.1-.1-.3-.2-.4-.1zm7.6 3.5c-.2 0-.1-.1-.3-.1-.2 0-.3.1-.3.2s-.2.3.2.5c.2.1.3.1.4.2.1.1.3 0 .3-.3 0-.2-.1-.4-.3-.5zm-3.5-3.5c-.1 0-.2.1-.2.3 0 .3-.1.3-.1.4 0 .1.1.2.2.2.2.1.4 0 .4-.3.1-.2.2-.3 0-.5-.2-.1-.2-.1-.3-.1zm-8.6-6.5c-.1.1-.2.2-.1.4s.2.4.3.4c.1 0 .3-.2.2-.6-.2-.4-.3-.3-.4-.2zm2.2 1.3c-.2-.1-.3-.1-.3 0 0 0-.1.3 0 .6 0 .1.3 0 .4-.1.1-.1.3-.3.2-.3 0-.2-.1-.2-.3-.2z"/></svg>