<svg xmlns="http://www.w3.org/2000/svg" version="1.1" x="0" y="0" viewBox="0 0 200 200" enable-background="new 0 0 200 200" xml:space="preserve">
	<polygon points="67.2 59.7 29.1 120.7 31 119.3 49.1 95.2 92.6 34.8 92.9 38.9 98.7 123.8 100 123.8 100 123.8 101.3 123.8 107.1 38.9 107.4 34.8 150.9 95.2 169 119.3 170.9 120.7 132.8 59.7 114 31 119.3 36.3 101.3 7.9 100 7.9 100 7.9 98.7 7.9 80.7 36.3 86 31 "></polygon>
	<polygon points="0 120 4 119.8 23.7 120.8 67.4 51.6 "></polygon>
	<path d="M106.9 125.5c2.7 0.7 8.8 1.9 16.4 1.9 11.7 0 28.3-1.4 40.6-8.2l-53-70.6L106.9 125.5zM36.1 119.2c12.3 6.8 28.9 8.2 40.6 8.2 7.7 0 13.7-1.2 16.4-1.9l-4-76.9L36.1 119.2z"></path>
	<polygon points="100 193.4 76.3 193.4 76.3 196.4 100 196.4 100 196.4 123.7 196.4 123.7 193.4 100 193.4 "></polygon>
	<polygon points="132.6 51.6 176.3 120.8 196 119.8 200 120 "></polygon>
	<polygon points="79.8 191.2 100 191.2 100 191.2 120.2 191.2 120.2 188.2 100 188.2 100 188.2 79.8 188.2 "></polygon>
	<path d="M119.1 134.6c-8.5 0-15-0.9-15-0.9l-0.8-0.1v-0.1H100h0 -3.3v0.1l-0.8 0.1c0 0-6.5 0.9-15 0.9 -7.7 0-17.8-0.8-26.7-3.9H25.3v49.4h54.8v-45.2h4.2v45.2H100h0 15.7v-45.2h4.2v45.2h54.8v-49.4h-28.8C137 133.8 126.8 134.6 119.1 134.6zM76.5 173.2H28.8v-3h47.7V173.2zM76.5 165.4H28.8v-3h47.7V165.4zM76.5 157.5H28.8v-3h47.7V157.5zM76.7 147.5h0 -48v-10.6h48V147.5zM85.3 136.9H100h0 14.7v4H100h0H85.3V136.9zM106.9 166.8l6-6 0.6 0.6 0 0 0.1 0.1 0.8 0.8 -4.6 4.6h4.6v2h-6.6l-1.6 1.6 6 4.9 -1.3 1.5 -6.2-5.1 -0.6 0.6 3.1 3.4 -1.5 1.4 -3.1-3.4c-0.7 1.2-1.6 1.9-2.6 1.9 -1 0-1.9-0.7-2.6-1.9l-3.1 3.4 -1.5-1.4 3.1-3.4 -0.6-0.6 -6.2 5.1 -1.3-1.5 6-4.9 -1.6-1.6h-6.6v-2h4.6l-4.6-4.6 0.8-0.8 0.1-0.1 0 0 0.6-0.6 6 6h2.6c0-1.5 0.2-2.8 0.5-4.1l-11.6-8.6 1.2-1.6 10.3 7.7 -7.3-12.1 0.3-0.2H85.3v-4H100h0 14.7v4h-3.8l0.3 0.2 -7.3 12.1 10.3-7.7 1.2 1.6 -11.6 8.6c0.3 1.2 0.5 2.6 0.5 4.1H106.9zM171.2 173.2h-47.7v-3h47.7V173.2zM171.2 165.4h-47.7v-3h47.7V165.4zM171.2 157.5h-47.7v-3h47.7V157.5zM171.4 147.5h-48 0v-10.6h48V147.5zM100 158.1c0.8 0 1.5 0.4 2.1 1.1l6.9-11.4H100h0 -9l6.9 11.4C98.5 158.5 99.2 158.1 100 158.1z"></path>
	<polygon points="100 185.9 116.4 185.9 116.4 182.9 100 182.9 100 182.9 83.6 182.9 83.6 185.9 100 185.9 "></polygon>
</svg>