<?xml version="1.0" encoding="utf-8"?>
<!-- Generator: Adobe Illustrator 22.0.1, SVG Export Plug-In . SVG Version: 6.00 Build 0)  -->
<svg version="1.1" xmlns="http://www.w3.org/2000/svg" xmlns:xlink="http://www.w3.org/1999/xlink" x="0px" y="0px"
	 viewBox="0 0 965.8 188.5" style="enable-background:new 0 0 965.8 188.5;" xml:space="preserve">
<style type="text/css">
	.st0{clip-path:url(#SVGID_2_);fill:url(#SVGID_3_);}
	.st1{clip-path:url(#SVGID_5_);fill:url(#SVGID_6_);}
	.st2{clip-path:url(#SVGID_8_);fill:url(#SVGID_9_);}
	.st3{clip-path:url(#SVGID_11_);fill:url(#SVGID_12_);}
	.st4{clip-path:url(#SVGID_14_);fill:url(#SVGID_15_);}
	.st5{clip-path:url(#SVGID_17_);fill:url(#SVGID_18_);}
	.st6{clip-path:url(#SVGID_20_);fill:url(#SVGID_21_);}
	.st7{clip-path:url(#SVGID_23_);fill:url(#SVGID_24_);}
	.st8{clip-path:url(#SVGID_26_);fill:url(#SVGID_27_);}
	.st9{clip-path:url(#SVGID_29_);fill:url(#SVGID_30_);}
	.st10{clip-path:url(#SVGID_32_);fill:url(#SVGID_33_);}
	.st11{clip-path:url(#SVGID_35_);fill:url(#SVGID_36_);}
	.st12{clip-path:url(#SVGID_38_);fill:url(#SVGID_39_);}
	.st13{clip-path:url(#SVGID_41_);fill:url(#SVGID_42_);}
	.st14{opacity:0.85;}
	.st15{fill:#E32727;}
	.st16{fill:#FFFFFF;}
</style>
<g id="Layer_1">
	<g>
		<defs>
			<path id="SVGID_1_" d="M43.6,106.2c0,9.9-1.1,23.3-4,28c-2.3,0.4-4.2,0.4-6.3,0.4c-4.2,0-8.2-0.6-12.4-1.5
				c0.8,10.3,0.8,18.9,0.8,27.8c9.5,1.7,20,2.3,28.2,2.3c12.4,0,18.3-12.4,21-23.6c-0.2-21.5-0.6-53.2-0.6-69.8
				c0-13.2,0.2-28.6,0.2-40C60,29.4,49.7,28,39.4,25.7C41,49.8,43.6,79.9,43.6,106.2"/>
		</defs>
		<clipPath id="SVGID_2_">
			<use xlink:href="#SVGID_1_"  style="overflow:visible;"/>
		</clipPath>
		
			<linearGradient id="SVGID_3_" gradientUnits="userSpaceOnUse" x1="-191.3917" y1="140.2987" x2="-190.392" y2="140.2987" gradientTransform="matrix(0 -137.5332 137.5332 0 -19249.8809 -26159.5156)">
			<stop  offset="0" style="stop-color:#2B3990"/>
			<stop  offset="1" style="stop-color:#0094CC"/>
		</linearGradient>
		<path class="st0" d="M20.8,25.7h50.1v137.5H20.8V25.7z"/>
	</g>
	<g>
		<defs>
			<path id="SVGID_4_" d="M128.8,40.4c1.1,13.9,2.6,34.3,2.6,47.3c0,12.8-0.7,29.5-1.7,41.5c-5.6,0-11.3-0.9-16.9-2.4
				c0.9-15.9,1.3-32.1,1.3-47.7c0-13-0.2-26-1.1-38.4c-9.3-0.2-19.1-0.6-28.4-1.1c2.8,18.9,3.7,37.3,3.7,56.7
				c0,13.9-0.4,28.2-1.1,43.8c8,9.8,20.2,15.2,31.2,20c5.4-2,10-5,14.5-8.3l3.3,9.3c6.5-2.2,13.7-3.5,20.4-4.1
				c-0.2-11.1-0.4-25.2-0.4-38.6c0-20.4,1.1-53,2.8-79.4C149,40.2,139.6,40.4,128.8,40.4"/>
		</defs>
		<clipPath id="SVGID_5_">
			<use xlink:href="#SVGID_4_"  style="overflow:visible;"/>
		</clipPath>
		
			<linearGradient id="SVGID_6_" gradientUnits="userSpaceOnUse" x1="-191.636" y1="140.3601" x2="-190.6362" y2="140.3601" gradientTransform="matrix(0 -122.0166 122.0166 0 -17004.3672 -23221.8477)">
			<stop  offset="0" style="stop-color:#2B3990"/>
			<stop  offset="1" style="stop-color:#0094CC"/>
		</linearGradient>
		<path class="st1" d="M84.7,39.1h74.4v122H84.7V39.1z"/>
	</g>
	<g>
		<defs>
			<path id="SVGID_7_" d="M195.4,86.9c0-8.7,0.4-16.9,0.6-24.3c7.8,2.4,15.2,8,15.2,15.4c0,8.9-7.2,18.7-15.4,23.2
				C195.4,96.4,195.4,91.5,195.4,86.9 M170.8,40.7c1.1,25.4,1.5,49.1,1.5,75.1c0,14.6,0,29.7-0.2,41.4c4.8-0.6,12.1-1.1,16.1-1.1
				c2.6,0,5.4,0.2,7.6,0.2c-0.2-3.9-0.2-7.8-0.2-11.7c0-7.8,0.2-15.4,0.2-20.2l4.6-1.9c3.9,7.2,11.3,25.6,15.4,37.8
				c7.2-2.6,13.5-4.8,21-6.9c-5.9-15.8-10.4-31.2-14.8-46.7c8.3-6.9,13.7-15.9,13.7-26.5c0-15-8.9-32.3-26.5-40.8
				C196,39.4,180.8,39.8,170.8,40.7"/>
		</defs>
		<clipPath id="SVGID_8_">
			<use xlink:href="#SVGID_7_"  style="overflow:visible;"/>
		</clipPath>
		
			<linearGradient id="SVGID_9_" gradientUnits="userSpaceOnUse" x1="-191.6561" y1="140.3627" x2="-190.6561" y2="140.3627" gradientTransform="matrix(0 -120.9033 120.9033 0 -16766.5117 -23011.5488)">
			<stop  offset="0" style="stop-color:#2B3990"/>
			<stop  offset="1" style="stop-color:#0094CC"/>
		</linearGradient>
		<path class="st2" d="M170.8,39.4h66v120.9h-66V39.4z"/>
	</g>
	<g>
		<defs>
			<path id="SVGID_10_" d="M280.6,70.6c2.8,13.9,5.2,27.8,7,42.1c-4.6,0.4-10,0.6-15,0.6C274.8,99,277.4,84.7,280.6,70.6
				 M242.2,157.6c8.3-0.9,16.5-1.3,24.8-1.5c0.6-6.7,1.3-13.9,2.2-20.8c7.2,0,14.1,0.2,21,0.6c1.1,7.8,1.9,15.2,1.9,23l28.6-1.1
				c-8.7-39.7-15.2-78.4-20-118.5c-12.8,0-25.2-0.2-38-0.9C257.4,78.9,250.7,117.9,242.2,157.6"/>
		</defs>
		<clipPath id="SVGID_11_">
			<use xlink:href="#SVGID_10_"  style="overflow:visible;"/>
		</clipPath>
		
			<linearGradient id="SVGID_12_" gradientUnits="userSpaceOnUse" x1="-191.664" y1="140.3642" x2="-190.6642" y2="140.3642" gradientTransform="matrix(0 -120.5322 120.5322 0 -16637.0078 -22942.7441)">
			<stop  offset="0" style="stop-color:#2B3990"/>
			<stop  offset="1" style="stop-color:#0094CC"/>
		</linearGradient>
		<path class="st3" d="M242.2,38.3h78.4v120.5h-78.4L242.2,38.3z"/>
	</g>
	<g>
		<defs>
			<path id="SVGID_13_" d="M330.6,76.9c0,12.8,17.6,25.2,17.6,39.3c0,13.5-16.1,23.4-23.9,27.8c7.8,8,15.8,14.3,23.9,18.9
				c18.2-11.1,29.9-29.7,29.9-46.9c0-11.3-19.5-26.3-19.5-35c0-10.4,9.8-19.8,19.7-25.4c-7.4-5.4-18.5-13.9-24.5-19.7
				C344.5,42.4,330.6,60.2,330.6,76.9"/>
		</defs>
		<clipPath id="SVGID_14_">
			<use xlink:href="#SVGID_13_"  style="overflow:visible;"/>
		</clipPath>
		
			<linearGradient id="SVGID_15_" gradientUnits="userSpaceOnUse" x1="-191.5499" y1="140.337" x2="-190.5501" y2="140.337" gradientTransform="matrix(0 -127.0234 127.0234 0 -17474.7852 -24168.4199)">
			<stop  offset="0" style="stop-color:#2B3990"/>
			<stop  offset="1" style="stop-color:#0094CC"/>
		</linearGradient>
		<path class="st4" d="M324.3,35.9h54v127h-54V35.9z"/>
	</g>
	<g>
		<defs>
			<path id="SVGID_16_" d="M383.6,76.9c0,12.8,17.6,25.2,17.6,39.3c0,13.5-16.1,23.4-23.9,27.8c7.8,8,15.8,14.3,23.9,18.9
				c18.2-11.1,29.9-29.7,29.9-46.9c0-11.3-19.5-26.3-19.5-35c0-10.4,9.8-19.8,19.7-25.4c-7.4-5.4-18.5-13.9-24.5-19.7
				C397.5,42.4,383.6,60.2,383.6,76.9"/>
		</defs>
		<clipPath id="SVGID_17_">
			<use xlink:href="#SVGID_16_"  style="overflow:visible;"/>
		</clipPath>
		
			<linearGradient id="SVGID_18_" gradientUnits="userSpaceOnUse" x1="-191.5499" y1="140.337" x2="-190.5501" y2="140.337" gradientTransform="matrix(0 -127.0234 127.0234 0 -17421.7852 -24168.4199)">
			<stop  offset="0" style="stop-color:#2B3990"/>
			<stop  offset="1" style="stop-color:#0094CC"/>
		</linearGradient>
		<path class="st5" d="M377.3,35.9h54v127h-54V35.9z"/>
	</g>
	<g>
		<defs>
			<path id="SVGID_19_" d="M440,89.9c0,23.2-0.4,45.6-0.7,68.1c10.2-0.7,17.6-0.7,26.3-0.9c0-22.6-0.4-44.5-0.4-66.2
				c0-16.7,0.2-33.4,0.9-50.4c-10,0-17.2-0.2-26.5-0.7C439.8,56.7,440,73.4,440,89.9"/>
		</defs>
		<clipPath id="SVGID_20_">
			<use xlink:href="#SVGID_19_"  style="overflow:visible;"/>
		</clipPath>
		
			<linearGradient id="SVGID_21_" gradientUnits="userSpaceOnUse" x1="-191.7062" y1="140.376" x2="-190.7063" y2="140.376" gradientTransform="matrix(0 -118.3086 118.3086 0 -16155.04 -22522.5898)">
			<stop  offset="0" style="stop-color:#2B3990"/>
			<stop  offset="1" style="stop-color:#0094CC"/>
		</linearGradient>
		<path class="st6" d="M439.2,39.6h26.9v118.3h-26.9V39.6z"/>
	</g>
	<g>
		<defs>
			<path id="SVGID_22_" d="M475.4,100.1c0,26.5,12.1,51,33.6,61.6c4.5-2.2,18.7-13.9,23.4-20c-18-5.9-31.3-18.2-31.3-41.4
				c0-26.3,17.6-38.6,27.3-42.8c-3.3-7.4-12.2-17.2-18.7-21.1C490.5,48.5,475.4,69.7,475.4,100.1"/>
		</defs>
		<clipPath id="SVGID_23_">
			<use xlink:href="#SVGID_22_"  style="overflow:visible;"/>
		</clipPath>
		
			<linearGradient id="SVGID_24_" gradientUnits="userSpaceOnUse" x1="-191.5809" y1="1129.6538" x2="-190.5806" y2="1129.6538" gradientTransform="matrix(7.675750e-15 -125.3545 -125.3545 -7.675750e-15 142111.0469 -23853.6973)">
			<stop  offset="0" style="stop-color:#2B3990"/>
			<stop  offset="1" style="stop-color:#0094CC"/>
		</linearGradient>
		<path class="st7" d="M475.4,36.3h56.9v125.4h-56.9V36.3z"/>
	</g>
	<g>
		<defs>
			<path id="SVGID_25_" d="M537.3,31.3c8.9,41.7,17.4,85.3,22.8,129.9c9.6,0,13.7,0.4,22.2,0.8c3.7-18.8,7.8-37.4,12.4-53.7
				c3.9,17.1,6.3,36.1,8.7,54.9c8.3-1.2,20.2-2.3,27.4-2.3c5-34.5,14.4-89.6,23.3-128.6c-6.5,0-20.2-2.9-27.4-5
				c-3.5,29.3-6.7,47.9-10.2,69.8c-3.9-16.3-7.2-21.9-9.6-43.8c-9.6,0-15.5,0-22.2-1c-2.4,15.9-4.8,28.3-8.9,45.2
				c-4.4-28.9-6.7-47.7-8.9-72.1C558.4,28.3,546.2,30.5,537.3,31.3"/>
		</defs>
		<clipPath id="SVGID_26_">
			<use xlink:href="#SVGID_25_"  style="overflow:visible;"/>
		</clipPath>
		
			<linearGradient id="SVGID_27_" gradientUnits="userSpaceOnUse" x1="-191.3883" y1="140.2958" x2="-190.3883" y2="140.2958" gradientTransform="matrix(0 -137.703 137.703 0 -18723.4531 -26191.4453)">
			<stop  offset="0" style="stop-color:#2B3990"/>
			<stop  offset="1" style="stop-color:#0094CC"/>
		</linearGradient>
		<path class="st8" d="M537.3,25.6h116.8v137.7H537.3V25.6z"/>
	</g>
	<g>
		<defs>
			<path id="SVGID_28_" d="M681.6,98.4c0-22.3,4.6-33.2,11.3-33.2c6.1,0,11.3,9.8,11.3,34.7c0,22.5-3.5,35.1-11.5,35.1
				C687,135,681.6,127.6,681.6,98.4 M655.2,101.4c0,43.9,12,58.9,37.1,58.9c26.8,0,37.7-18.6,37.7-61.7c0-43.9-11.4-60-35.1-60
				C671.3,38.6,655.2,53.9,655.2,101.4"/>
		</defs>
		<clipPath id="SVGID_29_">
			<use xlink:href="#SVGID_28_"  style="overflow:visible;"/>
		</clipPath>
		
			<linearGradient id="SVGID_30_" gradientUnits="userSpaceOnUse" x1="-191.6447" y1="1129.6376" x2="-190.6445" y2="1129.6376" gradientTransform="matrix(7.450494e-15 -121.6758 -121.6758 -7.450494e-15 138142.1562 -23158.2227)">
			<stop  offset="0" style="stop-color:#2B3990"/>
			<stop  offset="1" style="stop-color:#0094CC"/>
		</linearGradient>
		<path class="st9" d="M655.2,38.6H730v121.7h-74.8V38.6z"/>
	</g>
	<g>
		<defs>
			<path id="SVGID_31_" d="M761.2,86.5c0-8.7,0.4-16.8,0.6-24.2c7.8,2.4,15.1,7.9,15.1,15.3c0,8.9-7.2,18.6-15.3,23.1
				C761.2,95.9,761.2,91.1,761.2,86.5 M736.6,40.5c1.1,25.3,1.5,48.9,1.5,74.8c0,14.6,0,29.5-0.2,41.2c4.8-0.6,12-1.1,16.1-1.1
				c2.6,0,5.4,0.2,7.6,0.2c-0.2-3.9-0.2-7.8-0.2-11.6c0-7.8,0.2-15.3,0.2-20.1l4.6-1.8c3.9,7.2,11.3,25.5,15.3,37.7
				c7.2-2.6,13.5-4.8,20.9-6.8c-5.9-15.7-10.3-31-14.8-46.5c8.3-6.8,13.7-15.9,13.7-26.4c0-15-8.9-32.1-26.4-40.6
				C761.8,39.2,746.6,39.6,736.6,40.5"/>
		</defs>
		<clipPath id="SVGID_32_">
			<use xlink:href="#SVGID_31_"  style="overflow:visible;"/>
		</clipPath>
		
			<linearGradient id="SVGID_33_" gradientUnits="userSpaceOnUse" x1="-191.6654" y1="140.3653" x2="-190.6653" y2="140.3653" gradientTransform="matrix(0 -120.3867 120.3867 0 -16128.6621 -22914.3633)">
			<stop  offset="0" style="stop-color:#2B3990"/>
			<stop  offset="1" style="stop-color:#0094CC"/>
		</linearGradient>
		<path class="st10" d="M736.6,39.2h65.7v120.4h-65.7V39.2z"/>
	</g>
	<g>
		<defs>
			<path id="SVGID_34_" d="M812.8,42c0.6,15.7,0.9,31.2,0.9,46.3c0,23.8-0.7,47.1-1.8,70.7c8.7-0.2,16.8-0.4,24.9-0.4
				c8.3,0,16.2,0.2,24.4,0.4c0-6.8,1.1-20.7,1.7-25.8c-5.9,0.2-11.6,0.6-17.7,0.6c-2.4,0-4.6,0-7-0.2c0.7-25.5,1.3-65.5,1.5-93.8
				C832.7,41.1,820,41.8,812.8,42"/>
		</defs>
		<clipPath id="SVGID_35_">
			<use xlink:href="#SVGID_34_"  style="overflow:visible;"/>
		</clipPath>
		
			<linearGradient id="SVGID_36_" gradientUnits="userSpaceOnUse" x1="-191.6858" y1="1129.6307" x2="-190.6856" y2="1129.6307" gradientTransform="matrix(7.303628e-15 -119.2773 -119.2773 -7.303628e-15 135576.5938 -22704.5293)">
			<stop  offset="0" style="stop-color:#2B3990"/>
			<stop  offset="1" style="stop-color:#0094CC"/>
		</linearGradient>
		<path class="st11" d="M811.8,39.8h51v119.3h-51V39.8z"/>
	</g>
	<g>
		<defs>
			<path id="SVGID_37_" d="M901.4,67.9c9.4,0,19,6.5,20.5,27c-0.9,21.2-10.2,34.9-20.5,37.3V67.9z M875.2,40.6
				c0.9,17.2,1.3,33.6,1.3,49.7c0,23.4-0.4,45.8-2.2,68.1h16.8c10.3,0,22.3-0.6,31.2-5.7c19.6-11.8,23.4-35.1,23.4-55.4
				c0-18.8-8.1-35.5-20.7-46.5c-9.4-8.1-28.2-10.3-42.3-10.3C880,40.4,877.4,40.4,875.2,40.6"/>
		</defs>
		<clipPath id="SVGID_38_">
			<use xlink:href="#SVGID_37_"  style="overflow:visible;"/>
		</clipPath>
		
			<linearGradient id="SVGID_39_" gradientUnits="userSpaceOnUse" x1="-191.714" y1="140.3798" x2="-190.7138" y2="140.3798" gradientTransform="matrix(0 -117.9844 117.9844 0 -15652.5811 -22460.8574)">
			<stop  offset="0" style="stop-color:#2B3990"/>
			<stop  offset="1" style="stop-color:#0094CC"/>
		</linearGradient>
		<path class="st12" d="M874.3,40.4h71.5v118h-71.5V40.4z"/>
	</g>
	<path d="M938.9,40.9l-0.2-0.1C930.9,34,915.1,26,884.3,26c-3,0-6.1,0-9.1,0.2l-15.5,1.3v-6l-22.1,4.2c-4.9,0.9-16,1.7-23.8,1.9
		L795.2,28l0.2,5.2c-3.4-2.5-7-4.8-10.9-6.6l-3.8-1.8h-4.2c-7.5,0-26.5,0.1-39.9,1.4L719,27.7v1c-6-2.8-13.5-4.6-22.5-4.6
		c-7.6,0-14.2,1.2-19.8,3.2l2.1-9.4h-23.2c-3.6,0-15.1-2.2-22.3-4.2l-20.9-6l-2.6,21.6c-0.4,3.4-0.8,6.6-1.2,9.7h-0.2
		c-4,0-7.1,0-9.9-0.1h-0.7c-3.3-0.1-6-0.3-8.8-0.7l-1.2-0.2c-0.3-3.2-0.6-6.6-0.9-10l-2-23L563,11.9c-6.8,2.1-17.6,4.2-25.8,5
		l-20.7,1.9l0.7,3.5l-6.4-3.8l-9.7,6.2c-5.3,3.4-10.2,7.2-14.6,11.4l0.4-10.3h-19.3c-9.9,0-16.8-0.2-25.4-0.7l-19.8-1.2v3.9
		c-0.5-0.4-0.9-0.8-1.3-1.2l-11-10.6l-12.5,8.8c-4.4,3-9.6,8-14.6,14.2c-5.8-4.4-11.6-9.1-14.9-12.3l-11-10.6l-12.5,8.8
		c-7,4.9-16.3,14.6-22.9,26.7c-0.4-3.5-0.9-6.9-1.3-10.5l-2-16.3H302c-3.4,0-7.1,0-11.1-0.1l-16.6-0.4c-3-0.1-6.1-0.3-9.2-0.4
		l-17.2-1L245.8,40l-1.2,9c-6.4-9.3-15.2-17-25.8-22.1l-3.8-1.8h-4.2c-5.9,0-18.8,0.1-30.5,0.7l0.2-3.4l-21.9,2.4
		c-8.9,1-17.4,1.2-28.2,1.2h-20v0.3c-6.7-0.2-13.5-0.4-19.8-0.8v-9.2l-17.8-0.7c-9-0.4-18.1-1.6-27.8-3.8L20.8,6.1l1.7,24.8
		c0.3,3.8,0.5,7.7,0.8,11.8c1.6,21.5,3.3,46,3.3,67.5c0,3.2-0.1,6.2-0.3,8.8c-0.1,0-0.2,0-0.3-0.1l-24-4.8l2,24.5
		c0.8,9.6,0.8,17.7,0.8,26.3v15.5l15.3,2.7c12.7,2.3,25.1,2.6,31.4,2.6c7.1,0,22.4-2.4,32.5-20.5c9.2,7.4,19.6,12,28.6,15.9l6.9,3.1
		l4.9-1.8l2.2,6.2l17.2-5.9c3.2-1.1,7-2,11.1-2.6v2l21-2.4c4.6-0.5,11.1-1,14-1c1,0,2.2,0,3.4,0.1c1.4,0,2.8,0.1,4.2,0.1h5.3
		l3.1,9.4l15.2-5.5l24.7-2.7c6.7-0.7,13.8-1.2,23.2-1.4l6.1-0.1v3.7l60.2-2.3c1.8,1.2,3.6,2.3,5.3,3.3l9.5,5.4l9.3-5.7
		c5.9-3.6,11.3-7.9,16-12.6c5.9,5.1,12,9.4,18.2,12.9l9.5,5.4l9.3-5.7c3.4-2.1,6.6-4.4,9.6-6.8l-0.1,6l20.2-1.5
		c7.8-0.6,13.9-0.7,20.5-0.8c1.6,0,3.2-0.1,4.9-0.1l18.1-0.4V171c5,4.6,10.6,8.5,16.8,11.5l8.2,4l8.2-4.1
		c5.4-2.7,16.3-11.2,23.9-18.8c0.2,1.4,0.3,2.7,0.5,4.1l2,16.3h16.4c4,0,6.9,0.1,9.7,0.2l5.3,0.3h0.4c1.8,0.1,3.7,0.2,6,0.3l5.6,0.3
		l0.5,3.6l18.7-2.8c3.4-0.5,7.3-1,11.2-1.3l4.7-0.4c3.4-0.2,6.4-0.4,8.8-0.4h16l2.3-15.8c0.2-1.6,0.5-3.3,0.7-5
		c8.1,11.6,21.2,20.1,42.5,20.1c11.2,0,20-2.5,26.9-6.3l-0.1,4.8l20.9-2.4c4.6-0.5,11-1,13.9-1c1,0,2.2,0,3.4,0.1
		c1.4,0,2.8,0.1,4.2,0.1h5.3l3.1,9.4l17.8-6.4c1.7-0.6,3.3-1.2,4.8-1.7L794,182l21.4-0.5c8-0.2,15.5-0.3,23-0.3
		c7.9,0,15.5,0.2,23.4,0.4l19.4,0.4v-1.1h11.4c13.7,0,28.1-1,40.5-8.2l0.2-0.1c21.5-13,32.4-36.9,32.4-71.2
		C965.8,78,956,56,938.9,40.9 M51.5,167.2c-8.2,0-18.7-0.6-28.2-2.3c0-8.8,0-17.5-0.8-27.8c4.2,0.8,8.2,1.5,12.4,1.5
		c2.1,0,4,0,6.3-0.4c2.9-4.6,4-18.1,4-28c0-26.3-2.5-56.4-4.2-80.5c10.3,2.3,20.6,3.8,31.1,4.2c0,11.4-0.2,26.7-0.2,40
		c0,16.6,0.4,48.4,0.6,69.8C69.8,154.8,63.9,167.2,51.5,167.2 M158.2,161c-6.7,0.6-13.9,1.9-20.4,4.1l-3.3-9.3
		c-4.5,3.3-9.1,6.3-14.5,8.3c-10.9-4.8-23.2-10.2-31.2-20c0.7-15.6,1.1-29.9,1.1-43.8c0-19.5-0.9-37.8-3.7-56.7
		c9.3,0.6,19.1,0.9,28.4,1.1c0.9,12.4,1.1,25.4,1.1,38.4c0,15.6-0.4,31.7-1.3,47.7c5.6,1.5,11.3,2.4,16.9,2.4
		c0.9-12.1,1.7-28.7,1.7-41.5c0-13-1.5-33.4-2.6-47.3c10.8,0,20.2-0.2,30.2-1.3c-1.7,26.3-2.8,59-2.8,79.4
		C157.8,135.8,158,149.9,158.2,161 M217.4,164.3c-4.1-12.2-11.5-30.6-15.4-37.8l-4.6,1.9c0,4.8-0.2,12.4-0.2,20.2
		c0,3.9,0,7.8,0.2,11.7c-2.2,0-5-0.2-7.6-0.2c-4.1,0-11.3,0.6-16.1,1.1c0.2-11.7,0.2-26.7,0.2-41.4c0-26-0.4-49.7-1.5-75.1
		c10-0.9,25.2-1.3,38.4-1.3c17.6,8.5,26.5,25.8,26.5,40.8c0,10.6-5.4,19.7-13.7,26.5c4.4,15.6,8.9,31,14.8,46.7
		C231,159.5,224.7,161.7,217.4,164.3 M293.6,162.8c0-7.8-0.7-15.2-1.9-23c-6.9-0.4-13.7-0.6-21-0.6c-0.9,6.9-1.7,14.1-2.2,20.8
		c-8.3,0.2-16.5,0.6-24.8,1.5c8.5-39.7,15.2-78.6,20.4-119.2c12.8,0.7,25.2,0.9,38,0.9c4.8,40.1,11.3,78.8,20,118.5L293.6,162.8z
		 M349.8,166.9c-8.2-4.6-16.1-10.9-23.9-18.9c7.8-4.5,23.9-14.3,23.9-27.8c0-14.1-17.6-26.5-17.6-39.3c0-16.7,13.9-34.5,23.2-41
		c5.9,5.7,17.1,14.3,24.5,19.7c-9.8,5.6-19.7,15-19.7,25.4c0,8.7,19.5,23.7,19.5,35C379.7,137.2,368,155.8,349.8,166.9 M432.7,120
		c0,17.2-11.7,35.8-29.9,46.9c-8.2-4.6-16.1-10.9-23.9-18.9c7.8-4.5,23.9-14.3,23.9-27.8c0-14.1-17.6-26.5-17.6-39.3
		c0-16.7,13.9-34.5,23.2-41c5.9,5.7,17.1,14.3,24.5,19.7c-9.8,5.6-19.7,15-19.7,25.4C413.2,93.7,432.7,108.7,432.7,120 M466.8,94.8
		c0,21.7,0.4,43.6,0.4,66.2c-8.7,0.2-16.1,0.2-26.3,0.9c0.4-22.4,0.7-44.9,0.7-68.1c0-16.5-0.2-33.2-0.4-50.3
		c9.3,0.6,16.5,0.7,26.5,0.7C467,61.4,466.8,78.1,466.8,94.8 M510.6,165.6C489.1,155,477,130.6,477,104c0-30.4,15-51.6,34.1-63.8
		c6.5,3.9,15.4,13.7,18.7,21.1c-9.6,4.3-27.3,16.5-27.3,42.8c0,23.2,13.4,35.4,31.3,41.4C529.3,151.7,515,163.4,510.6,165.6
		 M632.4,165c-7.2,0-19.1,1-27.4,2.3c-2.4-18.8-4.8-37.8-8.7-54.9c-4.6,16.3-8.7,34.9-12.4,53.7c-8.5-0.4-12.6-0.8-22.2-0.8
		c-5.4-44.6-13.9-88.2-22.8-129.9c8.9-0.8,21.1-3.1,29.6-5.8c2.2,24.4,4.4,43.1,8.9,72.1c4.1-16.9,6.5-29.3,8.9-45.2
		c6.7,1,12.6,1,22.2,1c2.4,21.9,5.7,27.5,9.6,43.8c3.5-21.9,6.7-40.5,10.2-69.8c7.2,2.1,20.9,5,27.4,5
		C646.8,75.4,637.4,130.5,632.4,165 M693.9,164.2c-25.1,0-37.1-15-37.1-58.9c0-47.5,16.1-62.8,39.7-62.8s35.1,16.1,35.1,60
		C731.6,145.6,720.7,164.2,693.9,164.2 M783.1,163.6c-4.1-12.2-11.4-30.5-15.3-37.7l-4.6,1.8c0,4.8-0.2,12.4-0.2,20.1
		c0,3.9,0,7.8,0.2,11.6c-2.2,0-5-0.2-7.6-0.2c-4.1,0-11.3,0.6-16.1,1.1c0.2-11.6,0.2-26.6,0.2-41.2c0-25.8-0.4-49.5-1.5-74.8
		c10-0.9,25.1-1.3,38.2-1.3c17.5,8.5,26.4,25.7,26.4,40.6c0,10.5-5.4,19.6-13.7,26.4c4.4,15.5,8.9,30.8,14.8,46.5
		C796.6,158.8,790.3,161,783.1,163.6 M862.7,163c-8.1-0.2-16.1-0.4-24.4-0.4c-8.1,0-16.2,0.2-24.9,0.4c1.1-23.6,1.8-46.9,1.8-70.7
		c0-15.1-0.4-30.7-0.9-46.3c7.2-0.2,19.9-0.9,26.8-2.2c-0.2,28.2-0.7,68.3-1.5,93.8c2.4,0.2,4.6,0.2,7,0.2c6.1,0,11.8-0.4,17.7-0.6
		C863.8,142.4,862.7,156.2,862.7,163 M923.8,156.7c-8.9,5.2-20.9,5.7-31.2,5.7h-16.8c1.8-22.3,2.2-44.7,2.2-68.1
		c0-16.1-0.4-32.5-1.3-49.7c2.2-0.2,4.8-0.2,7.6-0.2c14,0,32.9,2.2,42.3,10.3c12.6,11.1,20.7,27.7,20.7,46.5
		C947.3,121.6,943.4,144.9,923.8,156.7 M778.5,81.6c0,8.9-7.2,18.6-15.3,23.1c-0.4-4.8-0.4-9.6-0.4-14.2c0-8.7,0.4-16.8,0.6-24.2
		C771.1,68.7,778.5,74.2,778.5,81.6 M705.7,103.9c0,22.5-3.5,35.1-11.4,35.1c-5.7,0-11.1-7.4-11.1-36.6c0-22.3,4.6-33.2,11.3-33.2
		C700.5,69.1,705.7,78.9,705.7,103.9 M282.2,74.6c2.8,13.9,5.2,27.8,7,42.1c-4.6,0.4-10,0.6-15,0.6C276.4,102.9,279,88.7,282.2,74.6
		 M212.8,82c0,8.9-7.2,18.7-15.4,23.2c-0.4-4.8-0.4-9.6-0.4-14.3c0-8.7,0.4-16.9,0.6-24.3C205.4,69,212.8,74.6,212.8,82 M923.5,98.9
		c-0.9,21.2-10.2,34.9-20.5,37.3V71.9C912.4,71.9,922,78.4,923.5,98.9"/>
	<g>
		<defs>
			<path id="SVGID_40_" d="M272.2,112.2c5,0,10.4-0.2,15-0.6c-1.9-14.3-4.3-28.2-7-42.1C277,83.7,274.4,97.9,272.2,112.2 M901,131.2
				c10.3-2.4,19.6-16.1,20.5-37.3c-1.5-20.5-11.1-27-20.5-27V131.2z M681.2,97.4c0,29.2,5.4,36.6,11.1,36.6
				c7.9,0,11.5-12.6,11.5-35.1c0-24.9-5.2-34.7-11.3-34.7C685.8,64.1,681.2,75,681.2,97.4 M195,85.9c0,4.6,0,9.5,0.4,14.3
				c8.2-4.4,15.4-14.3,15.4-23.2c0-7.4-7.4-13-15.2-15.4C195.4,69,195,77.2,195,85.9 M760.8,85.5c0,4.6,0,9.4,0.4,14.2
				c8.1-4.4,15.3-14.2,15.3-23.1c0-7.4-7.4-12.9-15.1-15.3C761.2,68.7,760.8,76.8,760.8,85.5 M876.1,89.3c0-16.1-0.4-32.5-1.3-49.7
				c2.2-0.2,4.8-0.2,7.6-0.2c14,0,32.9,2.2,42.3,10.3c12.6,11.1,20.7,27.7,20.7,46.5c0,20.3-3.9,43.6-23.4,55.4
				c-8.9,5.2-20.9,5.7-31.2,5.7H874C875.7,135.1,876.1,112.7,876.1,89.3 M813.3,87.3c0-15.1-0.4-30.7-0.9-46.3
				c7.2-0.2,19.9-0.9,26.8-2.2c-0.2,28.2-0.7,68.3-1.5,93.8c2.4,0.2,4.6,0.2,7,0.2c6.1,0,11.8-0.4,17.7-0.6
				c-0.6,5.2-1.7,19-1.7,25.8c-8.1-0.2-16.1-0.4-24.4-0.4c-8.1,0-16.3,0.2-24.9,0.4C812.5,134.4,813.3,111.1,813.3,87.3 M439.6,88.8
				c0-16.5-0.2-33.2-0.4-50.3c9.3,0.6,16.5,0.7,26.5,0.7c-0.7,17.1-0.9,33.8-0.9,50.4c0,21.7,0.4,43.6,0.4,66.2
				c-8.7,0.2-16.1,0.2-26.3,0.9C439.2,134.5,439.6,112,439.6,88.8 M171.9,114.8c0-26-0.4-49.7-1.5-75.1c10-0.9,25.2-1.3,38.4-1.3
				c17.6,8.5,26.5,25.8,26.5,40.8c0,10.6-5.4,19.7-13.7,26.5c4.5,15.6,8.9,31,14.8,46.7c-7.4,2-13.7,4.3-21,6.9
				c-4.1-12.2-11.5-30.6-15.4-37.8l-4.6,1.9c0,4.8-0.2,12.4-0.2,20.2c0,3.9,0,7.8,0.2,11.7c-2.2,0-5-0.2-7.6-0.2
				c-4.1,0-11.3,0.6-16.1,1.1C171.9,144.5,171.9,129.5,171.9,114.8 M737.7,114.3c0-25.8-0.4-49.5-1.5-74.8c10-0.9,25.1-1.3,38.2-1.3
				c17.5,8.5,26.4,25.7,26.4,40.6c0,10.5-5.4,19.6-13.7,26.4c4.4,15.5,8.9,30.8,14.8,46.5c-7.4,2-13.7,4.2-20.9,6.8
				c-4.1-12.2-11.4-30.5-15.3-37.7l-4.6,1.8c0,4.8-0.2,12.4-0.2,20.1c0,3.9,0,7.8,0.2,11.6c-2.2,0-5-0.2-7.6-0.2
				c-4.1,0-11.3,0.6-16.1,1.1C737.7,143.8,737.7,128.9,737.7,114.3 M131,86.6c0-13-1.5-33.4-2.6-47.3c10.8,0,20.2-0.2,30.2-1.3
				c-1.7,26.3-2.8,59-2.8,79.4c0,13.4,0.2,27.4,0.4,38.6c-6.7,0.6-13.9,1.9-20.4,4.1l-3.3-9.3c-4.5,3.3-9.1,6.3-14.5,8.3
				c-10.9-4.8-23.2-10.2-31.2-20c0.7-15.6,1.1-29.9,1.1-43.8c0-19.5-0.9-37.8-3.7-56.7c9.3,0.6,19.1,0.9,28.4,1.1
				c0.9,12.4,1.1,25.4,1.1,38.4c0,15.6-0.4,31.7-1.3,47.7c5.6,1.5,11.3,2.4,16.9,2.4C130.2,116.1,131,99.4,131,86.6 M654.8,100.3
				c0-47.5,16.1-62.8,39.7-62.8s35.1,16.1,35.1,60c0,43-10.9,61.7-37.7,61.7C666.8,159.2,654.8,144.3,654.8,100.3 M262.2,37.3
				c12.8,0.7,25.2,0.9,38,0.9c4.8,40.1,11.3,78.8,20,118.5l-28.6,1.1c0-7.8-0.7-15.2-1.9-23c-6.9-0.4-13.7-0.6-21-0.6
				c-0.9,6.9-1.7,14.1-2.2,20.8c-8.3,0.2-16.5,0.6-24.8,1.5C250.3,116.8,257,77.9,262.2,37.3 M475,99c0-30.4,15-51.6,34.1-63.8
				c6.5,3.9,15.4,13.7,18.7,21.1c-9.6,4.3-27.3,16.5-27.3,42.8c0,23.2,13.4,35.4,31.3,41.4c-4.6,6.1-18.9,17.8-23.4,20
				C487.1,150,475,125.6,475,99 M323.9,143c7.8-4.5,23.9-14.3,23.9-27.8c0-14.1-17.6-26.5-17.6-39.3c0-16.7,13.9-34.5,23.2-41
				c5.9,5.7,17.1,14.3,24.5,19.7c-9.8,5.6-19.7,15-19.7,25.4c0,8.7,19.5,23.7,19.5,35c0,17.2-11.7,35.8-29.9,46.9
				C339.7,157.3,331.7,151,323.9,143 M376.9,143c7.8-4.5,23.9-14.3,23.9-27.8c0-14.1-17.6-26.5-17.6-39.3c0-16.7,13.9-34.5,23.2-41
				c5.9,5.7,17.1,14.3,24.5,19.7c-9.8,5.6-19.7,15-19.7,25.4c0,8.7,19.5,23.7,19.5,35c0,17.2-11.7,35.8-29.9,46.9
				C392.6,157.3,384.7,151,376.9,143 M39.2,133.1c2.9-4.6,4-18.1,4-28c0-26.3-2.5-56.4-4.2-80.5c10.3,2.3,20.6,3.8,31.1,4.2
				c0,11.4-0.2,26.7-0.2,40c0,16.6,0.4,48.4,0.6,69.8c-2.7,11.1-8.6,23.6-21,23.6c-8.2,0-18.7-0.6-28.2-2.3c0-8.8,0-17.5-0.8-27.8
				c4.2,0.8,8.2,1.5,12.4,1.5C34.9,133.6,36.8,133.6,39.2,133.1 M559.7,160.2c-5.4-44.6-13.9-88.2-22.8-129.9
				c8.9-0.8,21.1-3.1,29.6-5.8c2.2,24.4,4.4,43.1,8.9,72.1c4.1-16.9,6.5-29.3,8.9-45.2c6.7,1,12.6,1,22.2,1
				c2.4,21.9,5.7,27.5,9.6,43.8c3.5-21.9,6.7-40.5,10.2-69.8c7.2,2.1,20.9,5,27.4,5c-8.9,39-18.3,94.1-23.3,128.6
				c-7.2,0-19.1,1-27.4,2.3c-2.4-18.8-4.8-37.8-8.7-54.9c-4.6,16.3-8.7,34.9-12.4,53.7C573.4,160.6,569.3,160.2,559.7,160.2
				 M561,6.9c-6.8,2.1-17.6,4.2-25.8,5l-20.7,1.9l0.7,3.5l-6.4-3.8l-9.7,6.2c-5.3,3.4-10.2,7.2-14.6,11.4l0.4-10.3h-19.3
				c-9.9,0-16.8-0.2-25.4-0.7l-19.8-1.2v3.9c-0.5-0.4-0.9-0.8-1.3-1.2l-11-10.6l-12.5,8.8c-4.4,3-9.6,8-14.6,14.2
				c-5.8-4.4-11.6-9.1-14.9-12.3l-11-10.6l-12.5,8.8c-7,4.9-16.3,14.6-22.9,26.7c-0.4-3.5-0.9-6.9-1.3-10.5l-2-16.3H300
				c-3.4,0-7.1,0-11.1-0.1l-16.6-0.4c-3-0.1-6.1-0.3-9.2-0.4l-17.2-1L243.8,35l-1.2,9c-6.4-9.3-15.2-17-25.8-22.1L213,20h-4.2
				c-5.9,0-18.8,0.1-30.5,0.7l0.2-3.4l-21.9,2.4c-8.9,1-17.4,1.2-28.2,1.2h-20v0.3c-6.7-0.2-13.5-0.4-19.8-0.8v-9.2l-17.8-0.7
				C61.8,10,52.7,8.8,43,6.6L18.8,1.1l1.7,24.8c0.3,3.8,0.5,7.7,0.8,11.8c1.6,21.5,3.3,46,3.3,67.5c0,3.2-0.1,6.2-0.3,8.8
				c-0.1,0-0.2,0-0.3-0.1l-24-4.8l2,24.5c0.8,9.6,0.8,17.7,0.8,26.3v15.5l15.3,2.7c12.7,2.3,25.1,2.6,31.4,2.6
				c7.1,0,22.4-2.4,32.5-20.5c9.2,7.4,19.6,12,28.6,15.9l6.9,3.1l4.9-1.8l2.2,6.2l17.2-5.9c3.2-1.1,7-2,11.1-2.6v2l21-2.4
				c4.6-0.5,11.1-1,14-1c1,0,2.2,0,3.4,0.1c1.4,0,2.8,0.1,4.2,0.1h5.3l3.1,9.4l15.2-5.5l24.7-2.7c6.7-0.7,13.8-1.2,23.2-1.4l6.1-0.1
				v3.7l60.2-2.3c1.8,1.2,3.6,2.3,5.3,3.3l9.5,5.4l9.3-5.7c5.9-3.6,11.3-7.9,16-12.6c5.9,5.1,12,9.4,18.2,12.9l9.5,5.4l9.3-5.7
				c3.4-2.1,6.6-4.4,9.6-6.8l-0.1,6l20.2-1.5c7.8-0.6,13.9-0.7,20.5-0.8c1.6,0,3.2-0.1,4.9-0.1l18.1-0.4V166
				c5,4.6,10.6,8.5,16.8,11.5l8.2,4l8.2-4.1c5.4-2.7,16.3-11.2,23.9-18.8c0.2,1.4,0.3,2.7,0.5,4.1l2,16.3h16.4c4,0,6.9,0.1,9.7,0.2
				l5.3,0.3h0.4c1.8,0.1,3.7,0.2,6,0.3l5.6,0.3l0.5,3.6l18.7-2.8c3.4-0.5,7.3-1,11.2-1.3l4.7-0.4c3.4-0.2,6.4-0.4,8.8-0.4h16
				l2.3-15.8c0.2-1.6,0.5-3.3,0.7-5c8.1,11.6,21.2,20.1,42.5,20.1c11.2,0,20-2.5,26.9-6.3l-0.1,4.8l20.9-2.4c4.6-0.5,11-1,13.9-1
				c1,0,2.2,0,3.4,0.1c1.4,0,2.8,0.1,4.2,0.1h5.3l3.1,9.4l17.8-6.4c1.7-0.6,3.3-1.2,4.8-1.7L792,177l21.4-0.5c8-0.2,15.5-0.3,23-0.3
				c7.9,0,15.5,0.2,23.4,0.4l19.4,0.4v-1.1h11.4c13.7,0,28.1-1,40.5-8.2l0.2-0.1c21.5-13,32.4-36.9,32.4-71.2
				c0-23.3-9.8-45.3-26.9-60.4l-0.2-0.1c-7.8-6.8-23.6-14.8-54.4-14.8c-3,0-6.1,0-9.1,0.2l-15.5,1.3v-6l-22.1,4.2
				c-4.9,0.9-16,1.7-23.8,1.9L793.2,23l0.2,5.2c-3.4-2.5-7-4.8-10.9-6.6l-3.8-1.8h-4.2c-7.5,0-26.5,0.1-39.9,1.4L717,22.7v1
				c-6-2.8-13.5-4.6-22.5-4.6c-7.6,0-14.2,1.2-19.8,3.2l2.1-9.4h-23.2c-3.6,0-15.1-2.2-22.3-4.2l-20.9-6l-2.6,21.6
				c-0.4,3.4-0.8,6.6-1.2,9.7h-0.2c-4,0-7.1,0-9.9-0.1h-0.7c-3.3-0.1-6-0.3-8.8-0.7l-1.2-0.2c-0.3-3.2-0.6-6.6-1-10l-1.9-23L561,6.9
				z"/>
		</defs>
		<clipPath id="SVGID_41_">
			<use xlink:href="#SVGID_40_"  style="overflow:visible;"/>
		</clipPath>
		
			<linearGradient id="SVGID_42_" gradientUnits="userSpaceOnUse" x1="-189.6433" y1="1129.8578" x2="-188.6433" y2="1129.8578" gradientTransform="matrix(536.8853 -536.8853 -536.8853 -536.8853 708621.4375 505160.3125)">
			<stop  offset="0" style="stop-color:#85878D"/>
			<stop  offset="6.000000e-03" style="stop-color:#85878D"/>
			<stop  offset="7.000001e-03" style="stop-color:#87888E"/>
			<stop  offset="3.600000e-02" style="stop-color:#9D9EA2"/>
			<stop  offset="6.800000e-02" style="stop-color:#AFAFB2"/>
			<stop  offset="0.103" style="stop-color:#BCBCBE"/>
			<stop  offset="0.144" style="stop-color:#C4C4C4"/>
			<stop  offset="0.207" style="stop-color:#C7C6C6"/>
			<stop  offset="0.293" style="stop-color:#C5C4C5"/>
			<stop  offset="0.346" style="stop-color:#BFBFBF"/>
			<stop  offset="0.389" style="stop-color:#B5B5B6"/>
			<stop  offset="0.427" style="stop-color:#A6A7A9"/>
			<stop  offset="0.461" style="stop-color:#949698"/>
			<stop  offset="0.492" style="stop-color:#808285"/>
			<stop  offset="0.525" style="stop-color:#97989A"/>
			<stop  offset="0.575" style="stop-color:#B6B6B8"/>
			<stop  offset="0.624" style="stop-color:#CFCECF"/>
			<stop  offset="0.67" style="stop-color:#E1DFDE"/>
			<stop  offset="0.713" style="stop-color:#EBE9E8"/>
			<stop  offset="0.748" style="stop-color:#F1EFED"/>
			<stop  offset="0.78" style="stop-color:#EBE9E8"/>
			<stop  offset="0.817" style="stop-color:#E0DEDE"/>
			<stop  offset="0.856" style="stop-color:#CECCCE"/>
			<stop  offset="0.896" style="stop-color:#B4B3B7"/>
			<stop  offset="0.938" style="stop-color:#949499"/>
			<stop  offset="0.98" style="stop-color:#707076"/>
			<stop  offset="1" style="stop-color:#5D5C62"/>
		</linearGradient>
		<path class="st13" d="M-91.7,91.7l573.6-573.6l573.6,573.6L481.9,665.4"/>
	</g>
	<path d="M950.7,24v1.1h-2.5v8.5H947v-8.5h-2.5V24H950.7z M953.1,33.6H952V24h2l2.4,8l2.4-8h2v9.5h-1.2V25l-2.7,8.5h-1.2l-2.6-8.5
		V33.6z"/>
</g>
<g id="Layer_2">
	<g class="st14">
		
			<image style="overflow:visible;opacity:0.75;" width="403" height="223" xlink:href="EF32EB89514CC1A4.png"  transform="matrix(1 0 0 1 281 -15.5)">
		</image>
		<g>
			
				<rect x="313.6" y="38.5" transform="matrix(0.9838 -0.1792 0.1792 0.9838 -9.4312 88.0781)" class="st15" width="338.7" height="115.5"/>
		</g>
	</g>
	<g>
		<path class="st16" d="M395,132.3l0.7,4.1c0.1,0.5,0.2,1,0.3,1.4c0.1,0.5,0.1,1,0,1.5c0.1,0.5,0.1,1,0,1.5c-0.1,0.5-0.1,1-0.2,1.5
			c-0.1,0.5-0.2,1-0.2,1.4c-0.5,2.4-1.4,4.6-2.7,6.7c-1.3,2.1-3.1,3.7-5.1,5c-2,1.4-4.2,2.4-6.7,2.8c-2.2,0.4-4.5,0.5-6.8,0.3
			c-2.3-0.1-4.5-0.8-6.5-1.9c-2-1.1-3.9-2.7-5.6-4.9c-1.5-2.2-2.7-5.1-3.3-8.9L350.2,96c-0.5-2.6-0.4-5.1,0.1-7.5
			c0.5-2.4,1.4-4.6,2.6-6.5c0.5-0.7,1-1.3,1.5-1.9c0.5-0.7,1.1-1.2,1.7-1.7c0.7-0.4,1.3-0.9,2-1.3c2.1-1.4,4.6-2.3,7.4-2.8
			c2.6-0.5,5.1-0.4,7.5,0.1c2.5,0.5,4.7,1.5,6.5,2.7c1.9,1.5,3.5,3.3,4.9,5.4c0.7,1.1,1.3,2.3,1.7,3.5c0.5,1.2,0.8,2.6,1.1,4
			l0.7,3.6l-9.8,1.8l-0.5-2.9c-0.3-1.4-0.7-2.7-1.3-3.7c-0.6-1-1.3-2-2.2-2.8c-0.7-0.5-1.4-1-2.1-1.3c-0.7-0.4-1.5-0.6-2.3-0.7
			c-0.8-0.1-1.7-0.1-2.6,0.1c-3.5,0.6-5.6,2.2-6.4,4.7c-0.7,2.3-0.8,4.9-0.3,7.9l7.9,43.4c0.1,0.6,0.3,1.3,0.5,1.9
			c0.2,0.6,0.4,1.2,0.7,1.7c0.3,0.6,0.5,1.1,0.8,1.6c0.2,0.4,0.6,0.9,1.1,1.3c1.7,1.8,4.2,2.4,7.4,1.9c0.5-0.1,0.9-0.2,1.4-0.4
			c0.5-0.2,0.9-0.4,1.4-0.6c1.1-0.5,2-1.2,2.7-2.1c0.7-1,1.3-2.1,1.6-3.5c0.3-1.4,0.3-3,0-4.8l-0.5-3L395,132.3z"/>
		<path class="st16" d="M408.9,152.3l-15-82.4l9.8-1.8l13.2,72.7l24.1-4.4l1.8,9.8L408.9,152.3z"/>
		<path class="st16" d="M446.4,126l-8.2-44.8c-0.6-3.3-0.6-6.2,0.1-8.9c0.7-2.7,1.8-5,3.3-6.9c0.5-0.7,1.1-1.3,1.6-1.8
			c0.6-0.6,1.2-1.1,1.8-1.6c0.6-0.5,1.3-0.9,2.1-1.4c0.7-0.4,1.5-0.8,2.1-1.1c0.5-0.3,1.1-0.6,1.6-0.8c0.6-0.2,1.1-0.3,1.7-0.4
			c1.7-0.3,3.7-0.3,5.9,0.1c1.2,0.3,2.4,0.6,3.5,1c1.1,0.4,2.3,0.9,3.4,1.5c2.1,1.3,4,3,5.5,5.3c1.6,2.3,2.6,5,3.2,8.3l8.2,44.8
			c0.6,3.3,0.6,6.3-0.1,8.9c-0.3,1.4-0.8,2.6-1.3,3.8c-0.6,1.1-1.2,2.2-2,3.1c-0.8,1-1.6,1.8-2.5,2.6c-0.9,0.8-1.9,1.5-2.9,2.2
			c-1.9,1.2-3.8,1.9-5.5,2.2c-0.6,0.1-1.1,0.2-1.7,0.2c-0.6,0-1.2,0-1.8-0.2c-0.7,0-1.5-0.1-2.4-0.2c-2.5-0.5-4.8-1.3-6.9-2.6
			c-2.1-1.3-4-3-5.5-5.2C448.1,132.2,447,129.4,446.4,126z M448,79.5l8.2,44.8c0.6,3.3,2,5.6,4.2,6.9c2,1.3,3.9,1.8,5.8,1.4
			c1.9-0.3,3.5-1.5,4.9-3.4c1.6-1.9,2.1-4.6,1.5-7.9l-8.2-44.8c-0.1-0.8-0.3-1.5-0.6-2.2c-0.2-0.7-0.6-1.3-0.9-1.9
			c-0.4-0.6-0.8-1.1-1.2-1.6c-0.5-0.5-1-0.8-1.5-1.1c-2-1.3-3.9-1.8-5.8-1.4c-0.6,0.1-1.2,0.3-1.7,0.6c-0.5,0.3-1,0.6-1.5,1.1
			c-0.6,0.4-1.1,1-1.7,1.7c-0.8,1-1.3,2.1-1.6,3.5C447.7,76.4,447.7,77.9,448,79.5z"/>
		<path class="st16" d="M519.2,64.9l0.9,4.8l-9.8,1.8l-0.3-1.5c-0.5-3-1.7-5.5-3.6-7.5c-2-2.1-4.4-2.9-7.1-2.4
			c-1.5,0.3-2.7,0.9-3.5,1.7c-1,1-1.7,2.1-2.2,3.4c-0.5,1.2-0.8,2.6-0.7,4.2c0,1.4,0.1,2.8,0.4,4.4c0,0.2,0.1,0.5,0.1,0.7
			c0,0.2,0.1,0.4,0.1,0.6c0,0.2,0.1,0.4,0.1,0.6c0,0.2,0.1,0.4,0.1,0.5c0,0.2,0.1,0.3,0.1,0.5c0.1,0.2,0.1,0.3,0.2,0.5
			c0,0.2,0.1,0.4,0.1,0.5c0,0.2,0.1,0.3,0.2,0.5c0.3,1.3,0.8,2.3,1.6,3.2c0.7,0.9,1.7,1.6,3,2.1c0.9,0.6,2.1,1.1,3.5,1.5l8.4,2.3
			c0.8,0.1,1.4,0.3,2,0.4c0.6,0.2,1.2,0.4,1.8,0.5c0.6,0.2,1.1,0.4,1.7,0.6c0.5,0.2,1,0.5,1.5,0.7c1.7,1,3.2,2.3,4.4,3.9
			c0.6,0.8,1.1,1.7,1.5,2.6c0.5,0.9,0.9,2,1.3,3.2c0.8,2.3,1.4,5,2,8c0.3,1.7,0.5,3.5,0.7,5.1c0.1,1.7,0.1,3.2,0,4.7
			c0,1.6-0.2,3-0.6,4.3c-0.3,1.3-0.8,2.6-1.4,3.8c-1.1,2.3-2.8,4.2-5.1,5.9c-2.3,1.7-5,2.7-7.9,3.3c-2.1,0.4-4.4,0.3-6.8-0.2
			c-2.6-0.6-4.9-1.6-6.9-2.9c-2.1-1.3-3.8-3.1-5.1-5.2c-0.8-1.1-1.4-2.2-1.9-3.4c-0.5-1.2-0.8-2.5-1.1-3.8l-0.6-3.3l9.8-1.8l0.5,2.6
			c0.4,2.5,1.6,4.6,3.4,6.3c2,1.9,4.3,2.5,7,2c0.9-0.2,1.7-0.4,2.3-0.7c0.7-0.3,1.2-0.7,1.6-1.2c1.2-1,2.1-2.1,2.6-3.5
			c0.3-0.6,0.5-1.3,0.5-2.1c0.1-0.8,0.1-1.6,0-2.5c-0.1-0.8-0.2-1.7-0.3-2.6c-0.1-0.9-0.3-1.9-0.5-2.8c-0.1-0.7-0.3-1.4-0.4-2.1
			c-0.1-0.7-0.3-1.3-0.4-1.9c-0.1-0.6-0.3-1.1-0.5-1.6c-0.2-0.8-0.5-1.5-0.8-2.1c-0.3-0.6-0.7-1.1-1.1-1.6c-0.4-0.5-0.9-0.9-1.4-1.2
			c-0.5-0.3-1-0.6-1.6-0.9c-1-0.4-2.1-0.8-3.4-1.2l-7.7-2.3c-5.4-1.2-9.2-3.2-11.5-6.2c-2.3-3-3.9-7.1-4.8-12.3
			c-0.6-3.1-0.7-6.1-0.3-8.9c0.2-1.4,0.4-2.8,0.8-4c0.4-1.3,0.9-2.5,1.5-3.6c0.6-1.1,1.4-2.2,2.3-3.1c0.9-0.9,1.9-1.8,3-2.6
			c2.1-1.6,4.4-2.7,7.1-3.1c2.2-0.4,4.5-0.3,7,0.3c1.3,0.3,2.5,0.8,3.7,1.2c1.2,0.5,2.2,1.1,3.2,1.8c2.1,1.4,3.7,3.1,5,5
			c0.6,1,1.1,2.1,1.6,3.1C518.7,62.7,519,63.8,519.2,64.9z"/>
		<path class="st16" d="M540.1,128.4l-15-82.4l33.8-6.2l1.6,9.1l-24.1,4.4l5,27.3l21-3.8l1.6,9.1l-21,3.8l5,27.3l24.1-4.4l1.8,9.8
			L540.1,128.4z"/>
		<path class="st16" d="M581.8,120.8l-15-82.4l16.8-3.1c3.3-0.6,6.3-0.7,9-0.2c2.6,0.5,4.9,1.5,6.9,2.9c2.1,1.4,3.8,3.3,5.1,5.7
			c1.3,2.4,2.3,5.2,2.9,8.6l7.2,39.7c0.7,3.8,0.8,7.2,0.4,10.1c-0.4,3-1.4,5.6-2.8,7.6c-1.4,2.1-3.4,3.8-5.8,5.1
			c-2.5,1.4-5.4,2.3-8.9,3L581.8,120.8z M578.3,45.7L590,110l6.8-1.2c1.8-0.3,3.4-0.9,4.8-1.6c1.3-0.7,2.3-1.7,2.9-2.9
			c1.2-2.2,1.5-5.3,0.8-9.3l-7.4-40.9c-0.7-3.6-1.9-6.3-3.8-8c-2-1.9-5-2.4-8.9-1.7L578.3,45.7z"/>
	</g>
</g>
</svg>
